<svg t="1625897335833" class="icon" viewBox="0 0 1344 1024" version="1.1" xmlns="http://www.w3.org/2000/svg" p-id="29092" width="32" height="32"><path d="M540.121194 218.987123c149.897339 0 286.409378 145.615846 338.553462 208.080583-52.144084 62.464736-188.656122 208.080582-338.553462 208.080582-149.942408 0-286.454447-145.615846-338.59853-208.080582C253.666747 364.602969 390.178786 218.987123 540.121194 218.987123z m0-62.464736c-186.042158 0-343.691254 177.524239-396.826841 244.946494a40.922064 40.922064 0 0 0 0 51.197649c53.135587 67.422255 210.784683 244.946494 396.826841 244.946494 185.99709 0 343.646186-177.524239 396.781773-244.946494a40.922064 40.922064 0 0 0 0-51.197649c-53.135587-67.422255-210.784683-244.946494-396.781773-244.946494z m0 208.080582c33.575922 0 60.842275 27.987447 60.842275 62.464737 0 34.477289-27.266353 62.464736-60.842275 62.464736-33.620991 0-60.887344-27.987447-60.887344-62.464736 0-34.477289 27.266353-62.464736 60.887344-62.464737z m0-62.374599a121.684551 121.684551 0 0 0-112.445539 77.066882 127.092753 127.092753 0 0 0 26.364986 136.061356 119.431133 119.431133 0 0 0 132.636161 27.041011c45.473967-19.289255 75.174011-64.80829 75.174011-115.329913 0-68.954579-54.487638-124.839336-121.729619-124.839336z" fill="#4E6EF2" p-id="29093"></path><path d="M540.121194 218.987123c149.897339 0 286.409378 145.615846 338.553462 208.080583-52.144084 62.464736-188.656122 208.080582-338.553462 208.080582-149.942408 0-286.454447-145.615846-338.59853-208.080582C253.666747 364.602969 390.178786 218.987123 540.121194 218.987123z m0-62.464736c-186.042158 0-343.691254 177.524239-396.826841 244.946494a40.922064 40.922064 0 0 0 0 51.197649c53.135587 67.422255 210.784683 244.946494 396.826841 244.946494 185.99709 0 343.646186-177.524239 396.781773-244.946494a40.922064 40.922064 0 0 0 0-51.197649c-53.135587-67.422255-210.784683-244.946494-396.781773-244.946494z m0 208.080582c33.575922 0 60.842275 27.987447 60.842275 62.464737 0 34.477289-27.266353 62.464736-60.842275 62.464736-33.620991 0-60.887344-27.987447-60.887344-62.464736 0-34.477289 27.266353-62.464736 60.887344-62.464737z m0-62.374599a121.684551 121.684551 0 0 0-112.445539 77.066882 127.092753 127.092753 0 0 0 26.364986 136.061356 119.431133 119.431133 0 0 0 132.636161 27.041011c45.473967-19.289255 75.174011-64.80829 75.174011-115.329913 0-68.954579-54.487638-124.839336-121.729619-124.839336z" fill="#4E6EF2" p-id="29094"></path><path d="M221.127397 169.006321l63.771718-63.72665 573.629987 573.629987-63.771718 63.72665L221.127397 169.006321z" fill="#4E6EF2" p-id="29095"></path></svg>