<svg t="1625896673643" class="icon" viewBox="0 0 1024 1024" version="1.1" xmlns="http://www.w3.org/2000/svg" p-id="24319" width="32" height="32"><path d="M512.064 831.36c-181.76 0-351.296-94.528-442.368-246.912a33.92 33.92 0 0 1 13.12-47.232 36.48 36.48 0 0 1 48.832 12.672C210.048 680.832 355.776 762.176 512 762.176s302.08-81.28 380.416-212.288a36.48 36.48 0 0 1 48.896-12.672 33.92 33.92 0 0 1 13.056 47.232C863.36 736.768 693.76 831.36 512 831.36z m411.456-340.16a36.16 36.16 0 0 1-31.04-17.28C814.08 343.04 668.352 261.632 512.064 261.632s-302.016 81.28-380.416 212.288a36.48 36.48 0 0 1-48.832 12.672 33.92 33.92 0 0 1-13.12-47.232c91.072-152.32 260.672-246.912 442.368-246.912 181.76 0 351.296 94.528 442.368 246.912a33.92 33.92 0 0 1-13.056 47.232 36.928 36.928 0 0 1-17.856 4.608z" fill="#2C84F6" p-id="24320"></path><path d="M512.064 701.12c-106.688 0-193.408-83.968-193.408-187.072C318.656 411.008 405.44 327.04 512 327.04c106.624 0 193.408 83.904 193.408 187.008 0 103.104-86.656 187.072-193.408 187.072z m0-305.024c-67.2 0-121.984 52.864-121.984 117.952s54.656 117.952 121.984 117.952 121.984-52.928 121.984-117.952C634.048 449.088 579.2 396.16 512 396.16z" fill="#2C84F6" p-id="24321"></path></svg>