<svg
  t="1626157520933"
  class="icon"
  viewBox="0 0 1024 1024"
  version="1.1"
  xmlns="http://www.w3.org/2000/svg"
  p-id="2581"
  width="32"
  height="32"
>
  <path
    d="M512 1001.73913C242.643478 1001.73913 22.26087 781.356522 22.26087 512S242.643478 22.26087 512 22.26087s489.73913 220.382609 489.73913 489.73913-220.382609 489.73913-489.73913 489.73913z m0-934.956521C267.130435 66.782609 66.782609 267.130435 66.782609 512s200.347826 445.217391 445.217391 445.217391 445.217391-200.347826 445.217391-445.217391S756.869565 66.782609 512 66.782609z"
    fill="#F91F1D"
    p-id="2582"
  ></path>
  <path
    d="M701.217391 774.032696H311.652174c-22.26087 0-40.069565-17.808696-40.069565-40.069566v-271.582608c0-22.26087 17.808696-40.069565 40.069565-40.069565h389.565217c22.26087 0 40.069565 17.808696 40.069566 40.069565v271.582608c-2.226087 22.26087-17.808696 40.069565-40.069566 40.069566zM311.652174 457.928348c-2.226087 0-6.678261 2.226087-6.678261 6.678261v271.582608c0 2.226087 2.226087 6.678261 6.678261 6.678261h389.565217c2.226087 0 6.678261-2.226087 6.678261-6.678261v-273.808695c0-2.226087-2.226087-6.678261-6.678261-6.678261H311.652174zM617.894957 349.96313c-8.904348 0-17.808696-6.678261-17.808696-15.582608 0-24.486957-8.904348-48.973913-26.713044-66.782609-17.808696-17.808696-42.295652-28.93913-66.782608-28.93913-51.2 0-93.495652 42.295652-95.721739 95.721739 0 8.904348-6.678261 17.808696-17.808696 17.808695-8.904348 0-15.582609-6.678261-15.582609-15.582608 0-71.234783 57.878261-126.886957 126.886957-126.886957 33.391304 0 66.782609 13.356522 91.269565 37.843478 24.486957 20.034783 37.843478 53.426087 37.843478 86.817392 0 8.904348-6.678261 15.582609-15.582608 15.582608z"
    fill="#F91F1D"
    p-id="2583"
  ></path>
  <path
    d="M395.286261 456.815304c-8.904348 0-17.808696-6.678261-17.808696-17.808695v-104.626087c0-8.904348 6.678261-17.808696 17.808696-17.808696s15.582609 8.904348 15.582609 17.808696v104.626087c0 8.904348-6.678261 17.808696-15.582609 17.808695z"
    fill="#F91F1D"
    p-id="2584"
  ></path>
  <path
    d="M469.704348 660.324174c-4.452174 0-6.678261-2.226087-8.904348-4.452174l-37.843478-66.782609c0-4.452174 0-8.904348 4.452174-13.356521 4.452174-2.226087 8.904348 0 13.356521 4.452173l31.165218 55.652174 113.530435-117.982608c4.452174-2.226087 8.904348-2.226087 13.356521 0 4.452174 4.452174 4.452174 8.904348 0 13.356521l-122.434782 126.886957c-2.226087 2.226087-4.452174 2.226087-6.678261 2.226087z"
    fill="#F91F1D"
    p-id="2585"
  ></path>
</svg>
