<svg
  t="1632365991250"
  class="icon"
  viewBox="0 0 1024 1024"
  version="1.1"
  xmlns="http://www.w3.org/2000/svg"
  p-id="5001"
  width="128"
  height="128"
>
  <path
    d="M246.4 866.4h531.2c24.8 0 44 20 44 44 0 24.8-20 44-44 44H246.4c-24.8 0-44-20-44-44 0-24.8 19.2-44 44-44zM910.4 69.6H113.6c-24.8 0-44 20-44 44v620c0 24.8 20 44 44 44h796.8c24.8 0 44-20 44-44V113.6c0-24.8-19.2-44-44-44zM711.2 454.4c6.4 8.8 14.4 15.2 24.8 18.4 2.4 1.6 4.8 2.4 6.4 4 4 3.2 6.4 7.2 8 12 0.8 4 0.8 8.8-0.8 15.2-0.8 5.6-2.4 12-4.8 17.6-2.4 5.6-5.6 11.2-8.8 16s-7.2 8-11.2 10.4-8 3.2-11.2 3.2-6.4-0.8-10.4-2.4c-3.2-0.8-8-2.4-12.8-3.2s-10.4-0.8-16-0.8c-5.6 0.8-10.4 1.6-16 3.2s-9.6 4.8-13.6 8.8c-8 8.8-12.8 18.4-14.4 29.6-1.6 11.2 0 21.6 4.8 31.2 3.2 6.4 3.2 13.6-1.6 20.8-2.4 2.4-5.6 5.6-9.6 8.8-4.8 3.2-9.6 5.6-14.4 8-5.6 2.4-11.2 4-16.8 5.6s-11.2 2.4-15.2 2.4c-3.2 0-5.6-1.6-8.8-4-2.4-2.4-4.8-4.8-5.6-8h-0.8c-4-10.4-10.4-20-19.2-27.2-8.8-8-19.2-11.2-31.2-11.2s-22.4 4-31.2 11.2c-9.6 8-16 16.8-20 27.2-1.6 4-4 7.2-8 8.8-3.2 1.6-7.2 2.4-11.2 2.4-4.8 0-10.4-0.8-16-2.4-5.6-1.6-12-4-17.6-6.4s-11.2-5.6-16-8.8-8-6.4-10.4-10.4c-1.6-2.4-2.4-5.6-3.2-8.8 0-3.2 0.8-8 4-13.6 4-8 5.6-16.8 4-27.2-0.8-10.4-5.6-19.2-12.8-28-4.8-4.8-10.4-8-17.6-9.6s-13.6-2.4-19.2-1.6c-7.2 0-14.4 1.6-22.4 4-4.8 1.6-9.6 0.8-14.4-0.8-4-1.6-7.2-4.8-10.4-9.6s-6.4-10.4-8.8-16.8c-2.4-5.6-4.8-12-5.6-18.4-1.6-6.4-1.6-11.2-0.8-16 0.8-7.2 4-12 10.4-14.4 10.4-4 19.2-11.2 28-20 8-9.6 12-20 12-31.2 0-12-4-22.4-12-31.2s-17.6-15.2-28-19.2c-3.2-0.8-5.6-3.2-7.2-7.2-2.4-4-3.2-8-3.2-12 0-4.8 0.8-9.6 2.4-15.2s3.2-11.2 5.6-16 4.8-9.6 8-14.4c3.2-4 6.4-7.2 9.6-9.6 2.4-1.6 5.6-2.4 8-2.4s5.6 0.8 8.8 2.4c10.4 4 20.8 5.6 32 4s20.8-6.4 29.6-14.4c4-4 7.2-9.6 8.8-15.2 1.6-6.4 3.2-12 4-17.6s0.8-11.2 0-16-0.8-8-1.6-10.4c-0.8-2.4-1.6-4.8-1.6-7.2-0.8-2.4 0-5.6 0.8-7.2 2.4-4.8 5.6-8.8 11.2-12.8s11.2-6.4 16.8-8.8c6.4-2.4 12-4 17.6-5.6 5.6-0.8 10.4-1.6 13.6-1.6 4 0 8 1.6 10.4 4 2.4 3.2 4 5.6 5.6 8.8 4 9.6 9.6 17.6 18.4 24.8s18.4 10.4 30.4 10.4 22.4-3.2 32-9.6c9.6-6.4 16-15.2 19.2-25.6 1.6-2.4 3.2-5.6 6.4-8.8s5.6-4 8.8-4c4.8 0 9.6 0.8 16 2.4 5.6 1.6 11.2 3.2 16.8 5.6 5.6 2.4 10.4 5.6 15.2 9.6s8 8 11.2 12c1.6 2.4 2.4 5.6 1.6 8.8-0.8 3.2-1.6 5.6-2.4 7.2-4.8 9.6-5.6 20-4 31.2 1.6 11.2 6.4 20.8 15.2 28.8 8 8 18.4 12.8 30.4 13.6 12 0.8 23.2-0.8 33.6-5.6 2.4-1.6 6.4-2.4 9.6-2.4 4 0 7.2 1.6 9.6 4.8 4.8 4.8 9.6 12 13.6 21.6s6.4 20 8 29.6c0.8 5.6 0 10.4-2.4 13.6s-5.6 5.6-8 6.4c-10.4 4-19.2 10.4-27.2 20-7.2 9.6-11.2 20-11.2 32-3.2 11.2 0 21.6 6.4 30.4z"
    fill="#06C1AE"
    p-id="5002"
  ></path>
  <path
    d="M512 535.2c15.2 0 30.4-3.2 44-8.8s25.6-13.6 36-24 18.4-22.4 24-36 8.8-28 8.8-43.2-3.2-29.6-8.8-43.2-13.6-25.6-24-35.2c-10.4-10.4-22.4-18.4-36-24S528 312 512 312c-15.2 0-29.6 3.2-43.2 8.8-13.6 5.6-25.6 13.6-35.2 24-10.4 10.4-18.4 21.6-24 35.2s-8.8 28-8.8 43.2 3.2 29.6 8.8 43.2c5.6 13.6 13.6 25.6 24 36 10.4 10.4 21.6 18.4 35.2 24s28 8.8 43.2 8.8z"
    fill="#06C1AE"
    opacity=".5"
    p-id="5003"
  ></path>
</svg>
