<svg
  t="1632489667177"
  class="icon"
  viewBox="0 0 1024 1024"
  version="1.1"
  xmlns="http://www.w3.org/2000/svg"
  p-id="3136"
  width="32"
  height="32"
>
  <path
    d="M872 72h-752c-9.6 0-16 6.4-16 16v576c0 9.6 6.4 16 16 16H272c-3.2-62.4 17.6-124.8 65.6-172.8 88-88 228.8-88 316.8 0 46.4 46.4 68.8 110.4 65.6 172.8h152c9.6 0 16-6.4 16-16v-576c0-9.6-6.4-16-16-16z"
    fill="#64B5F6"
    p-id="3137"
  ></path>
  <path
    d="M872 688H720c-4.8 0-8-3.2-8-8s3.2-8 8-8h152c4.8 0 8-3.2 8-8v-576c0-4.8-3.2-8-8-8h-752c-4.8 0-8 3.2-8 8v41.6c0 4.8-3.2 8-8 8S96 134.4 96 129.6V88C96 73.6 105.6 64 120 64h752c14.4 0 24 9.6 24 24v576c0 14.4-9.6 24-24 24z"
    fill="#37474F"
    p-id="3138"
  ></path>
  <path
    d="M936 752H705.6c-4.8 0-8-3.2-8-8s3.2-8 8-8h230.4c40 0 72-32 72-72v-576C1008 48 976 16 936 16h-848C48 16 16 48 16 88v576C16 704 48 736 88 736h198.4c4.8 0 8 3.2 8 8s-3.2 8-8 8H88C38.4 752 0 713.6 0 664v-576C0 38.4 38.4 0 88 0h848C985.6 0 1024 38.4 1024 88v576c0 49.6-38.4 88-88 88z"
    fill="#37474F"
    p-id="3139"
  ></path>
  <path
    d="M649.6 504h78.4c22.4 0 40-17.6 40-40V176c0-22.4-17.6-40-40-40H576c-44.8 0-80 19.2-80 64 0-44.8-35.2-64-80-64h-152C241.6 136 224 153.6 224 176v288c0 22.4 17.6 40 40 40h78.4"
    fill="#FFFFFF"
    p-id="3140"
  ></path>
  <path
    d="M728 512h-78.4c-4.8 0-8-3.2-8-8s3.2-8 8-8h78.4c17.6 0 32-14.4 32-32V176c0-17.6-14.4-32-32-32H576c-27.2 0-72 8-72 56 0 4.8-3.2 8-8 8s-8-3.2-8-8c0-48-44.8-56-72-56h-152c-17.6 0-32 14.4-32 32v288c0 17.6 14.4 32 32 32h78.4c4.8 0 8 3.2 8 8s-3.2 8-8 8h-78.4c-27.2 0-48-20.8-48-48V176c0-27.2 20.8-48 48-48H416c38.4 0 67.2 12.8 80 38.4 12.8-25.6 41.6-38.4 80-38.4h152c27.2 0 48 20.8 48 48v288c0 27.2-20.8 48-48 48zM952 432c-17.6 0-32-14.4-32-32v-48c0-17.6 14.4-32 32-32s32 14.4 32 32v48c0 17.6-14.4 32-32 32z m0-96c-8 0-16 8-16 16v48c0 8 8 16 16 16s16-8 16-16v-48c0-8-8-16-16-16zM56 416c-4.8 0-8-3.2-8-8v-64c0-4.8 3.2-8 8-8s8 3.2 8 8v64c0 4.8-3.2 8-8 8zM8 208c-4.8 0-8-3.2-8-8v-48c0-4.8 3.2-8 8-8s8 3.2 8 8v48c0 4.8-3.2 8-8 8zM104 233.6c-4.8 0-8-3.2-8-8v-48c0-4.8 3.2-8 8-8s8 3.2 8 8v48c0 4.8-3.2 8-8 8zM272 688H120c-14.4 0-24-9.6-24-24V273.6c0-4.8 3.2-8 8-8s8 3.2 8 8v390.4c0 4.8 3.2 8 8 8H272c4.8 0 8 3.2 8 8s-3.2 8-8 8z"
    fill="#37474F"
    p-id="3141"
  ></path>
  <path
    d="M696 224h-128c-4.8 0-8-3.2-8-8s3.2-8 8-8h128c4.8 0 8 3.2 8 8s-3.2 8-8 8zM696 288h-128c-4.8 0-8-3.2-8-8s3.2-8 8-8h128c4.8 0 8 3.2 8 8s-3.2 8-8 8zM696 352h-128c-4.8 0-8-3.2-8-8s3.2-8 8-8h128c4.8 0 8 3.2 8 8s-3.2 8-8 8zM696 416h-128c-4.8 0-8-3.2-8-8s3.2-8 8-8h128c4.8 0 8 3.2 8 8s-3.2 8-8 8zM424 224h-128c-4.8 0-8-3.2-8-8s3.2-8 8-8h128c4.8 0 8 3.2 8 8s-3.2 8-8 8zM424 288h-128c-4.8 0-8-3.2-8-8s3.2-8 8-8h128c4.8 0 8 3.2 8 8s-3.2 8-8 8zM424 352h-128c-4.8 0-8-3.2-8-8s3.2-8 8-8h128c4.8 0 8 3.2 8 8s-3.2 8-8 8zM424 416h-128c-4.8 0-8-3.2-8-8s3.2-8 8-8h128c4.8 0 8 3.2 8 8s-3.2 8-8 8zM667.2 889.6c-1.6 0-4.8 0-6.4-1.6l-59.2-59.2c-1.6-1.6-3.2-3.2-1.6-6.4 0-1.6 1.6-4.8 3.2-6.4 8-6.4 16-12.8 24-20.8s14.4-16 20.8-24c1.6-1.6 3.2-3.2 6.4-3.2 1.6 0 4.8 0 6.4 1.6l59.2 59.2c3.2 3.2 3.2 8 0 11.2l-44.8 44.8c-3.2 4.8-6.4 4.8-8 4.8z m-48-67.2l48 48 33.6-33.6-48-48c-4.8 6.4-9.6 11.2-16 17.6-4.8 6.4-11.2 11.2-17.6 16z"
    fill="#37474F"
    p-id="3142"
  ></path>
  <path
    d="M496 867.2c-51.2 0-102.4-19.2-142.4-59.2-78.4-78.4-78.4-204.8 0-283.2C432 448 560 448 638.4 524.8c38.4 36.8 59.2 86.4 59.2 140.8 0 52.8-20.8 104-59.2 142.4-40 40-91.2 59.2-142.4 59.2z m0-384c-48 0-94.4 17.6-129.6 54.4-72 72-72 188.8 0 260.8s188.8 72 260.8 0c35.2-35.2 54.4-81.6 54.4-131.2 0-49.6-19.2-94.4-54.4-129.6-36.8-36.8-83.2-54.4-131.2-54.4z m1.6 334.4c-38.4 0-78.4-14.4-107.2-44.8-59.2-59.2-59.2-155.2 0-214.4 28.8-28.8 67.2-44.8 107.2-44.8s78.4 16 107.2 44.8c59.2 59.2 59.2 155.2 0 214.4-30.4 30.4-68.8 44.8-107.2 44.8z m0-286.4c-36.8 0-70.4 14.4-96 40-52.8 52.8-52.8 139.2 0 192s139.2 52.8 192 0 52.8-139.2 0-192c-27.2-25.6-60.8-40-96-40z"
    fill="#37474F"
    p-id="3143"
  ></path>
  <path
    d="M337.6 507.2c1.6-1.6 3.2-3.2 4.8-3.2h-78.4c-22.4 0-40-17.6-40-40V200h-16c-22.4 0-40 17.6-40 40v288c0 22.4 17.6 40 40 40h86.4c11.2-22.4 25.6-41.6 43.2-60.8zM784 200h-16V464c0 22.4-17.6 40-40 40h-78.4c1.6 1.6 3.2 3.2 4.8 3.2 17.6 17.6 32 38.4 43.2 60.8H784c22.4 0 40-17.6 40-40V240c0-22.4-17.6-40-40-40z"
    fill="#FFCA28"
    p-id="3144"
  ></path>
  <path
    d="M294.4 576H208c-27.2 0-48-20.8-48-48V240c0-27.2 20.8-48 48-48h16c4.8 0 8 3.2 8 8V464c0 17.6 14.4 32 32 32h78.4c4.8 0 8 3.2 8 8s-3.2 8-8 8h-78.4c-27.2 0-48-20.8-48-48V208H208c-17.6 0-32 14.4-32 32v288c0 17.6 14.4 32 32 32h86.4c4.8 0 8 3.2 8 8s-3.2 8-8 8zM784 576h-86.4c-4.8 0-8-3.2-8-8s3.2-8 8-8H784c17.6 0 32-14.4 32-32V240c0-17.6-14.4-32-32-32h-8v256c0 27.2-20.8 48-48 48h-78.4c-4.8 0-8-3.2-8-8s3.2-8 8-8h78.4c17.6 0 32-14.4 32-32V200c0-4.8 3.2-8 8-8h16c27.2 0 48 20.8 48 48v288c0 27.2-20.8 48-48 48z"
    fill="#37474F"
    p-id="3145"
  ></path>
  <path
    d="M705.6 841.6L672 875.2c-6.4 6.4-6.4 16 0 22.4l113.6 113.6c6.4 6.4 16 6.4 22.4 0l33.6-33.6c6.4-6.4 6.4-16 0-22.4l-113.6-113.6c-6.4-6.4-16-6.4-22.4 0z"
    fill="#EF5350"
    p-id="3146"
  ></path>
  <path
    d="M796.8 1024c-6.4 0-12.8-1.6-17.6-6.4l-113.6-113.6c-9.6-9.6-9.6-24 0-33.6l33.6-33.6c9.6-9.6 24-9.6 33.6 0l113.6 113.6c9.6 9.6 9.6 24 0 33.6l-33.6 33.6c-3.2 3.2-9.6 6.4-16 6.4z m-80-179.2c-1.6 0-3.2 1.6-4.8 3.2l-33.6 33.6c-3.2 3.2-3.2 8 0 11.2l113.6 113.6c3.2 3.2 8 3.2 11.2 0l33.6-33.6c3.2-3.2 3.2-8 0-11.2L721.6 848c-1.6-1.6-3.2-3.2-4.8-3.2zM496 451.2c-4.8 0-8-3.2-8-8V200c0-4.8 3.2-8 8-8s8 3.2 8 8v243.2c0 4.8-3.2 8-8 8z"
    fill="#37474F"
    p-id="3147"
  ></path>
  <path
    d="M592 673.6c-4.8 0-8-3.2-8-8 0-48-40-88-88-88-4.8 0-8-3.2-8-8s3.2-8 8-8c57.6 0 104 46.4 104 104 0 4.8-3.2 8-8 8z"
    fill="#37474F"
    p-id="3148"
  ></path>
  <path
    d="M761.6 996.8c-1.6 0-4.8-1.6-6.4-3.2-3.2-3.2-3.2-8 0-11.2l57.6-56c3.2-3.2 8-3.2 11.2 0 3.2 3.2 3.2 8 0 11.2l-57.6 56c0 3.2-3.2 3.2-4.8 3.2z"
    fill="#37474F"
    p-id="3149"
  ></path>
</svg>
