<svg
  t="1632470450550"
  class="icon"
  viewBox="0 0 1024 1024"
  version="1.1"
  xmlns="http://www.w3.org/2000/svg"
  p-id="71292"
  width="32"
  height="32"
>
  <path
    d="M472.183488 2.454003c94.292798-7.400552 190.551368 11.781782 274.527077 55.388506 71.281706 36.797189 133.698168 90.618218 180.568331 155.745647 47.795232 66.078193 79.350364 143.809686 90.965119 224.547653 13.387804 91.890188 1.477541 187.42926-34.921355 272.921054-31.735006 75.149009-81.881455 142.357842-144.696211 194.392974-62.57064 52.035132-137.732497 88.858018-217.30128 106.061731-96.605471 21.083864-199.352371 13.721857-291.73079-21.67488-77.281807-29.332396-147.137365-77.898519-201.742133-139.942384-50.660376-57.277189-88.228457-126.092045-108.811242-199.750665-27.250991-97.145094-24.976863-202.39739 6.745295-298.193426 25.77345-78.335358 71.024743-150.105295 130.396185-207.318243C240.736361 62.42931 354.519849 11.036587 472.183488 2.454003M220.41054 232.038143c-7.863087 2.813752-11.190765 11.203614-13.272171 18.591317-3.404768 7.683212-8.492647 15.417817-7.773149 24.15458 2.351217 9.443413 6.770991 18.167327 9.880251 27.353777 1.747353 4.997942 4.291292 10.265696 9.443412 12.488431 7.824542 3.597491 15.700477 7.092196 23.319448 11.100829 7.618971 4.124266 15.160853-2.197039 22.021782-4.997943 7.541882-4.175659 18.321506-5.653199 21.276587-15.032371 3.854454-10.753927 9.276386-21.058168 11.242158-32.403112 0.064241-6.938018-3.841606-13.040903-6.102886-19.400753l-0.98931 0.256964c-2.839448-7.863087-4.047177-18.681255-13.323563-21.584944-9.481957-3.327679-18.128783-9.302083-28.150364-10.779623-9.803162 1.233425-18.398595 6.873777-27.572195 10.252848m445.806173 57.739724c-51.611142 50.300627-102.888231 100.948156-154.44798 151.325872-2.556788 2.492547-4.830916 5.267754-6.835232 8.222836l-0.809436 0.256963c-0.539624 2.775207-1.002158 5.550414-1.541781 8.33847-1.670263-1.798745-3.404768-3.53325-5.152121-5.242058 8.248532-20.441455 12.92527-42.822986 9.623287-64.844768-2.004316-27.225295-14.698319-52.985897-33.238243-72.772095-4.162811-4.355533-8.479799-8.762459-13.798946-11.704693-8.788156-8.723915-20.158795-14.325721-31.56798-18.809737-32.403112-13.028055-70.664994-11.100828-101.603413 4.959398l-0.693802-0.745194c0.256964 6.693902-2.017164 14.942434 3.520402 20.120251 24.86123 24.694203 49.709611 49.414103 74.326725 74.352421-13.336412 12.848181-26.300226 26.107503-39.353977 39.251192-2.736662 2.582484-6.783839 6.128582-10.638294 3.443313-5.627503-3.687428-9.700376-9.199297-14.556988-13.760402-22.754128-22.214504-44.698821-45.264141-67.542886-67.388708-3.353375 4.959398-5.807378 10.445571-7.708909 16.098771-1.824442 4.573952-3.803061 9.147905-4.548256 14.043061-9.276386 26.916939-7.400552 57.148708 2.723815 83.551719 12.141531 31.413802 37.889285 57.354279 69.187453 69.765621 20.981079 9.39202 44.711669 10.998043 67.273074 7.888783 11.37064-1.503237 21.867604-6.347001 32.750012-9.687528 7.593275 7.451945 15.53345 14.646926 22.214505 22.985395-17.319348 17.524918-34.792873 34.9599-51.456964 53.101531-19.657716 18.899674-38.197641 39.007077-58.112321 57.675483-10.419875 2.312673-19.233726 8.929486-28.754229 13.503438-10.188607 5.691744-22.03463 10.175759-28.278845 20.736964-8.646826 13.940276-17.910364 27.816311-23.409386 43.362609-2.852296 6.629661 1.284818 13.220778 5.923012 17.743338 5.01079 6.860928 11.062284 13.040903 18.051694 17.871819 6.84808 4.201355 14.90389-0.205571 21.340828-3.199197 14.043061-7.785997 29.062585-14.646926 40.844366-25.786298 12.141531-15.880351 18.668407-35.204015 28.792773-52.292096 19.876136-23.345144 44.287679-42.527478 64.279448-65.718444 3.25059-1.580326 5.845922-4.188507 8.40271-6.681054 12.295709-12.411343 24.989711-24.424391 37.50384-36.617315 43.414003 44.63458 88.035734 88.125671 131.886574 132.323413 4.394078 5.280602 3.032171 12.78394 5.177817 18.976763 7.451945 26.749912 35.24256 45.302685 62.801907 42.681656 23.383689-1.490389 45.983639-18.424291 52.18931-41.294053 7.83739-14.210088 9.443413-31.413802 5.563262-47.075734-6.603965-25.336612-31.516587-44.531794-57.752572-44.223437-5.43478-7.233526-12.398494-13.079448-18.64271-19.56778-31.953425-32.236085-64.497867-63.894003-96.052999-96.515533 4.80522-1.207729 9.417716-3.366223 12.899574-6.976562 39.225496-38.724417 79.286123-76.600853 118.421681-115.428055 14.017365-13.798946 28.818469-26.852698 42.052095-41.435383 17.447829-19.542083 17.524918-51.970891 0.256964-71.628607-7.529034-8.197139-17.113777-15.430665-28.188909-17.704793-18.758344-5.781681-39.649486 0.899373-53.319949 14.518444z"
    fill="#378FE3"
    p-id="71293"
  ></path>
  <path
    d="M239.528632 252.479598c5.627503-2.145646 12.21862-2.081405 17.691945 0.50108 10.535508 5.43478 13.991669 20.826901 6.668206 30.193224-6.886625 9.713225-23.16527 10.895257-30.925571 1.631719-8.929486-9.443413-5.730289-27.366625 6.56542-32.326023zM664.829109 701.343639c8.030113-5.704592 18.205872-10.80532 28.098971-6.565421 10.137215 3.353375 14.839649 13.850339 16.137315 23.704894-5.383388 6.398394-12.899573 11.897415-21.726273 10.985194-14.107302-0.167026-24.771292-14.518444-22.510013-28.124667z"
    fill="#378FE3"
    p-id="71294"
  ></path>
  <path
    d="M220.41054 232.038143c9.173601-3.379072 17.769034-9.019423 27.572195-10.252848 10.021581 1.477541 18.668407 7.451945 28.150364 10.779623 9.276386 2.903689 10.484115 13.721857 13.323563 21.584944-4.586801 1.169184-9.135056 2.479699-13.657616 3.867302-6.783839-12.655458-21.739122-21.173802-36.090539-16.933902-10.072974 2.531092-16.587001 11.396336-21.405069 19.978921-0.051393-1.400452-0.115634-2.813752-0.167026-4.214203-4.458319-0.398294-10.291393-0.552472-10.998043-6.21852 2.081405-7.387704 5.409084-15.777566 13.272171-18.591317zM495.168883 564.227854c2.017164 2.068557 4.047177 4.124266 6.090038 6.192824-1.580326 1.824442-3.134956 3.67458-4.779523 5.447628-2.415458 2.518243-4.985094 4.895157-7.55473 7.259222-12.514128 12.192923-25.20813 24.205972-37.50384 36.617315-2.556788 2.492547-5.15212 5.100728-8.40271 6.681054-13.529134 4.175659-21.983237 15.995985-33.238243 23.756286 14.132999-16.150163 30.206073-30.463036 44.865846-46.124968 14.76256-11.884567 27.931945-25.70921 40.523162-39.829361z"
    fill="#B4C7DA"
    p-id="71295"
  ></path>
  <path
    d="M239.708507 241.083262c14.351418-4.2399 29.3067 4.278444 36.090539 16.933902 2.877992 8.839548 2.389762 18.527077-0.84798 27.186751-7.863087 13.130841-24.951167 20.05601-39.315432 13.55483-8.248532-3.353375-13.876035-10.895257-17.216562-18.899673-0.925069-6.231368-0.513927-12.539824-0.115634-18.796889 4.818068-8.582585 11.332095-17.447829 21.405069-19.978921m-0.179875 11.396336c-12.295709 4.959398-15.494906 22.88261-6.56542 32.326023 7.760301 9.263538 24.038946 8.081506 30.925571-1.631719 7.323463-9.366324 3.867302-24.758444-6.668206-30.193224-5.473325-2.582484-12.064442-2.646725-17.691945-0.50108zM264.197139 360.879699c1.901531-5.653199 4.355533-11.139373 7.708909-16.098771 22.844065 22.124567 44.788758 45.174203 67.542886 67.388708 4.856612 4.561104 8.929486 10.072974 14.556988 13.760402 3.854454 2.68527 7.901631-0.860828 10.638294-3.443313 13.053752-13.143689 26.017566-26.403011 39.353977-39.251192 1.862986-2.094253 3.687428-4.304141 4.728131-6.938017-0.70665-4.548256-3.507553-8.40271-6.244216-11.961657 4.80522 3.584642 9.340627 7.567578 12.976662 12.372798-0.192723-2.209887-0.334053-4.432622-0.436838-6.629661 2.030013 2.980778 5.254906 6.526876 2.877993 10.278545-5.126424 9.507654-14.017365 16.175859-21.160954 24.090339-10.66399 10.329937-19.760502 22.201656-30.86133 32.094755-3.841606 3.67458-9.828858 5.331995-14.595533 2.389761-8.235684-4.766675-13.991669-12.629762-20.518545-19.34936-15.623388-17.781882-33.893501-33.032673-49.041505-51.212848-4.111418-5.537566-11.165069-6.642509-17.524919-7.490489zM459.66936 377.389611c3.173501-2.993626 7.015107-5.08788 10.818168-7.143588 1.259122 2.055709 2.428306 4.175659 3.661732 6.257064 3.006474 9.25069 5.242058 18.822585 6.115734 28.522961 1.593174 25.439398-8.441255 51.289937-26.852698 68.943337-25.670665 26.994028-69.98404 35.24256-102.515634 16.008833 3.700276-8.711066 10.985194-14.852497 17.640553-21.225194 30.334555-30.501581 60.951769-60.73335 91.132145-91.363413zM554.270514 533.931844c4.985094-1.490389 10.008733-2.8266 15.04522-4.149962 7.002258 9.019423 15.494906 16.66409 23.486474 24.771292 28.625747 28.908407 57.688331 57.392823 85.928633 86.673827 0.102785 1.516085 0.218419 3.045019 0.346901 4.586801-4.882309 0.98931-9.790314 1.914379-14.531293 3.430464-9.636136 2.865144-17.563463 10.162911-27.854856 10.94665 4.149962-4.689586 8.929486-9.417716 10.535509-15.661932 1.143488-5.383388-2.197039-10.329937-5.640352-14.107303-26.505797-26.582886-53.551217-52.664693-79.722961-79.543086-1.952923-5.897315-4.573952-11.537666-7.593275-16.946751zM466.504592 535.499322c9.636136 9.507654 19.182334 19.092396 28.664291 28.728532-12.591217 14.120151-25.760602 27.944793-40.523162 39.829361-8.929486-4.933701-19.182334-2.376913-28.831317-2.865145-7.824542-0.321205-15.880351-1.104944-23.473626 1.336211 16.66409-18.141631 34.137616-35.576612 51.456964-53.101531 2.736662-2.96793 5.37054-6.038645 8.094353-9.032271 1.516085-1.657415 3.070715-3.263438 4.612497-4.895157zM496.479398 575.868306c1.644567-1.773049 3.199197-3.623187 4.779523-5.447628 3.944391 3.970088 7.850238 8.017265 12.205772 11.550514 6.886625 4.625345 15.700477 4.66389 23.383688 2.197039 18.231568 17.897516 36.373199 35.923513 53.975207 54.424893 5.743137 9.186449 15.520602 15.10946 20.05601 25.131042-6.796688-1.618871-13.503438-1.914379-20.248732 0.025696-0.398294-1.657415-0.796587-3.314831-1.182033-4.972246-1.4133 0.552472-2.800903 1.143488-4.201355 1.721656-4.38123-3.67458-8.980878-7.066499-13.554831-10.484115-25.529335-24.231669-49.902334-49.683915-75.213249-74.146851z"
    fill="#DADBDC"
    p-id="71296"
  ></path>
  <path
    d="M199.36522 274.78404c-0.719498-8.736763 4.368381-16.471368 7.773149-24.15458 0.70665 5.666048 6.539724 5.820226 10.998043 6.21852 0.051393 1.400452 0.115634 2.813752 0.167026 4.214203-0.398294 6.257064-0.809435 12.565521 0.115634 18.796889-6.334153-0.488231-12.848181-1.169184-18.591318-4.111418l-0.462534-0.963614zM275.799046 258.017164c4.52256-1.387604 9.070816-2.698118 13.657616-3.867302l0.98931-0.256964c2.26128 6.359849 6.167127 12.462735 6.102886 19.400753-0.886524 2.479699-1.927227 4.920853-3.083563 7.297767-4.484015 5.640351-12.115834 4.792371-18.514229 4.612497 3.237742-8.659674 3.725972-18.347202 0.84798-27.186751z"
    fill="#A6B9CA"
    p-id="71297"
  ></path>
  <path
    d="M293.465295 280.591418c1.156336-2.376913 2.197039-4.818068 3.083563-7.297767-1.965772 11.344944-7.387704 21.649184-11.242158 32.403112-2.955082 9.379172-13.734705 10.856713-21.276587 15.032371-6.860928 2.800903-14.402811 9.122208-22.021782 4.997943-7.618971-4.008632-15.494906-7.503338-23.319448-11.100829-5.15212-2.222735-7.69606-7.490489-9.443412-12.488431-3.10926-9.186449-7.529034-17.910364-9.880251-27.353777l0.462534 0.963614c4.355533 8.312773 7.079348 17.345044 11.409185 25.644968 3.494705 6.783839 11.447729 8.68537 17.871819 11.601907 6.128582 2.338369 12.000201 6.115734 18.732647 6.257064 7.053651-0.668105 13.323563-4.394078 19.901832-6.732446 5.884467-2.505395 13.015207-4.342685 16.265797-10.407027 3.790213-6.873777 5.884467-14.531292 9.456261-21.520702z"
    fill="#5A769C"
    p-id="71298"
  ></path>
  <path
    d="M666.216713 289.777867c13.670464-13.619072 34.561606-20.300125 53.319949-14.518444-1.811593-0.038545-3.623187-0.025696-5.421932 0.012848-13.901731 0.629561-28.381631 3.828758-39.482459 12.655458-7.811694 6.257064-14.377114 13.876035-21.623488 20.749812-30.72 28.343087-59.242961 58.985997-89.885872 87.419021-13.015207 12.681154-25.824843 25.56788-38.827202 38.261882-5.884467 5.627503-10.792472 13.310715-19.362208 14.968131 2.004316-2.955082 4.278444-5.730289 6.835232-8.222836 51.559749-50.377716 102.836838-101.025245 154.44798-151.325872z"
    fill="#F18A8B"
    p-id="71299"
  ></path>
  <path
    d="M199.827754 275.747654c5.743137 2.942233 12.257164 3.623187 18.591318 4.111418 3.340527 8.004417 8.96803 15.546299 17.216562 18.899673 14.364266 6.501179 31.452346-0.42399 39.315432-13.55483 6.398394 0.179875 14.030213 1.027854 18.514229-4.612497-3.571794 6.98941-5.666048 14.646926-9.456261 21.520702-3.25059 6.064341-10.38133 7.901631-16.265797 10.407027-6.578269 2.338369-12.848181 6.064341-19.901832 6.732446-6.732447-0.14133-12.604065-3.918695-18.732647-6.257064-6.42409-2.916537-14.377114-4.818068-17.871819-11.601907-4.329837-8.299925-7.053651-17.332196-11.409185-25.644968z"
    fill="#95A8BA"
    p-id="71300"
  ></path>
  <path
    d="M674.632271 287.927729c11.100828-8.8267 25.580728-12.025897 39.482459-12.655458 22.021782 6.179975 38.467453 27.096813 39.867905 49.838093 1.310514 17.640552-7.105044 34.844266-19.901832 46.651744-51.662535 50.056512-103.517792 99.920301-155.026148 150.118143-13.387804-16.882509-30.424492-30.308858-45.431167-45.636738-8.582585-8.479799-16.843965-17.306499-25.837691-25.362308-2.556788 10.150063-4.458319 20.441455-7.246374 30.527277-1.015006-0.873676-2.042861-1.721656-3.083564-2.54394 15.81611 19.580627 35.229711 35.974906 52.420578 54.322108 6.899473 7.747453 6.84808 20.505696 0.154178 28.355935-4.895157 5.794529-10.214304 11.319247-16.265797 15.906047-5.807378 4.368381-13.400652 4.085721-20.300125 4.52256-4.355533-3.53325-8.26138-7.580427-12.205772-11.550514-2.042861-2.068557-4.072873-4.124266-6.090038-6.192824-9.481957-9.636136-19.028156-19.220878-28.664291-28.728532-4.278444-4.278444-8.801004-8.351317-12.552672-13.117992-7.015107-8.531192-6.372698-22.073174 0.98931-30.193225 5.254906-5.781681 10.535508-11.833174 17.293651-15.880351 8.132898-4.034329 17.447829-1.104944 25.529335 1.516085 1.027854-3.700276 2.030013-7.4134 2.929385-11.15222 0.668105-2.916537 1.323363-5.820226 1.888683-8.749611 0.539624-2.788055 1.002158-5.563262 1.541781-8.33847l0.809436-0.256963c8.569737-1.657415 13.477742-9.340627 19.362208-14.968131 13.002359-12.694003 25.811995-25.580728 38.827202-38.261882 30.642911-28.433024 59.165872-59.075935 89.885872-87.419021 7.246374-6.873777 13.811794-14.492748 21.623488-20.749812m16.535609 1.143488c-50.570439 50.043664-100.408532 100.832522-150.824793 151.043212-8.903789 8.325621-4.843764 23.499322 5.653199 28.433024 7.169285 2.274128 15.302183 0.937917 20.48-4.818068 47.024341-47.217064 93.920201-94.549762 140.931694-141.753977 4.008632-4.111418 8.492647-7.83739 11.807478-12.565521 4.933701-7.066499 2.633877-17.781882-4.394078-22.612798-7.259222-5.15212-17.537767-4.227051-23.6535 2.274128m40.073475 38.685872c-52.04798 52.035132-104.108808 104.083112-156.298118 155.989762-2.942233 3.083563-6.090038 7.297767-4.368381 11.79463 1.079247 4.252748 5.627503 5.820226 8.890941 8.055809 8.441255-2.055709 14.004517-8.903789 19.799046-14.826801 48.386248-48.79739 96.708256-97.723262 145.377165-146.25084 3.379072-3.327679 4.149962-8.158595 5.023638-12.591217l-1.143488 0.102785c-3.237742-6.84808-12.372798-8.081506-17.280803-2.274128z"
    fill="#FF5A56"
    p-id="71301"
  ></path>
  <path
    d="M714.11473 275.272271c1.798745-0.038545 3.610339-0.051393 5.421932-0.012848 11.075132 2.274128 20.659875 9.507654 28.188909 17.704793 17.267955 19.657716 17.190866 52.086524-0.256964 71.628607-13.233626 14.582685-28.03473 27.636437-42.052095 41.435383-39.135558 38.827202-79.196186 76.703639-118.421681 115.428055-3.481857 3.610339-8.094354 5.768833-12.899574 6.976562-1.593174 0.475383-3.199197 0.899373-4.779523 1.349059-5.036487 1.323363-10.060125 2.659573-15.04522 4.149962 3.019322 5.409084 5.640351 11.049435 7.593275 16.946751-1.580326 14.865345-14.441355 24.372999-25.015408 33.289636-7.683212 2.466851-16.497064 2.428306-23.383688-2.197039 6.899473-0.436838 14.492748-0.154178 20.300125-4.52256 6.051493-4.586801 11.37064-10.111518 16.265797-15.906047 6.693902-7.850238 6.745295-20.608482-0.154178-28.355935-17.190866-18.347202-36.604467-34.741481-52.420578-54.322108 1.040703 0.822284 2.068557 1.670263 3.083564 2.54394 15.006675 14.839649 29.936261 29.820627 44.711669 44.904391 2.466851 2.286976 5.331995 5.113576 9.019422 4.548256 8.723915-1.169184 17.640552-3.636035 24.784141-8.980878 51.508356-50.197842 103.363614-100.061631 155.026148-150.118143 12.796788-11.807478 21.212346-29.011192 19.901832-46.651744-1.400452-22.74128-17.846123-43.658118-39.867905-49.838093z"
    fill="#DE2A28"
    p-id="71302"
  ></path>
  <path
    d="M691.16788 289.071217c6.115734-6.501179 16.394279-7.426248 23.6535-2.274128-7.657516-0.321205-16.021681 1.002158-21.392221 7.015107-25.452246 25.953325-51.444115 51.367026-76.934906 77.281807-21.135257 22.522861-42.463237 44.865847-64.382233 66.656361-4.484015 4.882309-9.95734 10.060125-10.445571 17.075232 0.501079 4.753827 3.738821 8.582585 5.79453 12.758243-0.359749 0.231267-1.092095 0.719498-1.464693 0.963614-10.496964-4.933701-14.556989-20.107403-5.653199-28.433024 50.416261-50.21069 100.254354-100.999548 150.824793-151.043212zM731.241355 327.757089c4.908005-5.807378 14.043061-4.573952 17.280803 2.274128-9.379172-0.732346-16.150163 6.038645-21.777666 12.552673-48.077892 48.283463-96.297114 96.451292-144.516336 144.593425-4.908005 4.162811-3.777365 10.843864-2.762359 16.419975-3.263438-2.235583-7.811694-3.803061-8.890941-8.055809-1.721656-4.496863 1.426148-8.711066 4.368381-11.79463 52.18931-51.90665 104.250138-103.95463 156.298118-155.989762z"
    fill="#DE2A28"
    p-id="71303"
  ></path>
  <path
    d="M326.844868 289.508055c30.938419-16.060226 69.200301-17.987453 101.603413-4.959398 11.409184 4.484015 22.779824 10.085822 31.56798 18.809737-17.062384-8.646826-34.25325-17.807578-53.294253-21.212346-21.46931-3.803061-45.05857-3.096412-64.189511 8.454103 12.270013 15.148005 27.495107 27.520803 41.345445 41.152722 11.666148 11.473425 22.921154 23.357992 35.011293 34.381732 6.090038 5.409084 5.421932 14.210088 6.308456 21.597791 1.850138-1.169184 3.700276-2.325521 5.576111-3.45616 7.503338 4.496863 15.160853-1.888683 21.764818-5.100728-27.353777 28.779925-56.082309 56.223639-83.988557 84.451092-7.644668 7.863087-16.034529 15.04522-22.908306 23.627804 1.760201 0.873676 3.494705 1.811593 5.254905 2.723814 32.531593 19.233726 76.844969 10.985194 102.515634-16.008833 18.411443-17.6534 28.445872-43.50394 26.852698-68.943337-0.873676-9.700376-3.10926-19.272271-6.115734-28.522961 2.492547 4.09857 5.177817 8.081506 8.055809 11.935959 8.158595-2.415458 16.548457-0.115634 24.848381-0.603864 3.301982 22.021782-1.374755 44.403312-9.623287 64.844768-0.475383 1.220577-0.963614 2.441154-1.464692 3.661731 1.55463 3.456161 3.134956 6.886625 4.72813 10.329938-0.899373 3.738821-1.901531 7.451945-2.929385 11.15222-8.081506-2.621029-17.396437-5.550414-25.529335-1.516085-6.758143 4.047177-12.038745 10.09867-17.293651 15.880351-7.362008 8.12005-8.004417 21.662033-0.98931 30.193225 3.751669 4.766675 8.274228 8.839548 12.552672 13.117992-1.541782 1.631719-3.096412 3.237742-4.612497 4.895157-9.045119-8.171443-17.100928-17.383588-26.313074-25.362308-31.619373 13.452045-68.622133 14.993827-100.549862 1.721656-35.769335-14.878193-64.485019-46.81877-73.453049-84.7466-5.126424-18.591317-4.458319-38.1334-1.927227-57.084467 0.745194-4.895157 2.723814-9.469109 4.548256-14.043061 6.359849 0.84798 13.413501 1.952923 17.524919 7.490489 15.148005 18.180176 33.418118 33.430966 49.041505 51.212848 6.526876 6.719598 12.282861 14.582685 20.518545 19.34936 4.766675 2.942233 10.753927 1.284818 14.595533-2.389761 11.100828-9.893099 20.19734-21.764818 30.86133-32.094755 7.143588-7.914479 16.034529-14.582685 21.160954-24.090339 2.376913-3.751669-0.84798-7.297767-2.877993-10.278545 0.102785 2.197039 0.244115 4.419774 0.436838 6.629661-3.636035-4.80522-8.171443-8.788156-12.976662-12.372798-4.214203-3.39192-8.338469-6.912321-12.064442-10.843864-21.006775-21.507854-42.912923-42.142033-63.572798-63.98394zM402.340778 602.528281c7.593275-2.441154 15.649084-1.657415 23.473626-1.336211 9.648984 0.488231 19.901832-2.068557 28.831317 2.865145-14.659774 15.661932-30.732848 29.974806-44.865846 46.124968-4.175659 3.751669-8.338469 7.516186-12.385647 11.409185-0.269812-0.770891-0.822284-2.325521-1.092095-3.096412-17.345044 1.143488-34.780025-0.359749-52.073676 1.708808 19.91468-18.668407 38.454605-38.775809 58.112321-57.675483z"
    fill="#E5E5E6"
    p-id="71304"
  ></path>
  <path
    d="M342.532497 290.600151c19.130941-11.550514 42.720201-12.257164 64.189511-8.454103 19.041004 3.404768 36.23187 12.565521 53.294253 21.212346 5.319147 2.942233 9.636136 7.349159 13.798946 11.704693 18.539925 19.786198 31.233927 45.546801 33.238243 72.772095-8.299925 0.488231-16.689787-1.811593-24.848381 0.603864-2.877992-3.854454-5.563262-7.83739-8.055809-11.935959-1.233425-2.081405-2.40261-4.201355-3.661732-6.257064-1.053551-1.721656-2.030013-3.494705-3.109259-5.190665-4.959398 4.689586-9.803162 9.507654-14.839649 14.12015-6.603965 3.212045-14.261481 9.597591-21.764818 5.100728-1.875834 1.13064-3.725972 2.286976-5.576111 3.45616-0.886524-7.387704-0.218419-16.188708-6.308456-21.597791-12.090138-11.023739-23.345144-22.908306-35.011293-34.381732-13.850339-13.63192-29.075433-26.004718-41.345445-41.152722zM344.228457 660.203764c17.293651-2.068557 34.728632-0.56532 52.073676-1.708808 0.269812 0.770891 0.822284 2.325521 1.092095 3.096412-8.54404 9.096512-18.347202 17.190866-25.593576 27.392321-7.940176 15.61054-15.777566 31.311016-24.347302 46.587503-10.137215 13.130841-26.133199 19.888984-40.317591 27.726374-6.385546 2.800903-13.002359 7.13074-20.261581 6.064341-6.963714-2.723814-11.807478-8.839548-17.165169-13.811794-4.638193-4.52256-8.775307-11.113676-5.923012-17.743338 5.499021-15.546299 14.76256-29.422334 23.409386-43.362609 6.244216-10.561205 18.090238-15.04522 28.278845-20.736964 9.520502-4.573952 18.334354-11.190765 28.754229-13.503438z"
    fill="#EEEFF0"
    p-id="71305"
  ></path>
  <path
    d="M693.429159 293.812196c5.37054-6.012949 13.734705-7.336311 21.392221-7.015107 7.027955 4.830916 9.327779 15.546299 4.394078 22.612798-3.314831 4.72813-7.798846 8.454103-11.807478 12.565521C660.396487 369.179624 613.500627 416.512321 566.476286 463.729385c-5.177817 5.755985-13.310715 7.092196-20.48 4.818068 0.372597-0.244115 1.104944-0.732346 1.464693-0.963614-2.055709-4.175659-5.29345-8.004417-5.79453-12.758243 0.488231-7.015107 5.961556-12.192923 10.445571-17.075232 21.918996-21.790514 43.246976-44.133501 64.382233-66.656361 25.49079-25.91478 51.48266-51.328482 76.934906-77.281807zM726.744492 342.58389c5.627503-6.514028 12.398494-13.285019 21.777666-12.552673l1.143488-0.102785c-0.873676 4.432622-1.644567 9.263538-5.023638 12.591217-48.668908 48.527578-96.990916 97.45345-145.377165 146.25084-5.794529 5.923011-11.357792 12.771092-19.799046 14.826801-1.015006-5.57611-2.145646-12.257164 2.762359-16.419975 48.219222-48.142133 96.438444-96.309962 144.516336-144.593425zM507.785797 450.881205c8.993726 8.055809 17.255107 16.882509 25.837691 25.362308 15.006675 15.32788 32.043363 28.754228 45.431167 45.636738-7.143588 5.344843-16.060226 7.811694-24.784141 8.980878-3.687428 0.56532-6.552572-2.26128-9.019422-4.548256-14.775408-15.083764-29.704994-30.064743-44.711669-44.904391 2.788055-10.085822 4.689586-20.377215 7.246374-30.527277z"
    fill="#FF2F2C"
    p-id="71306"
  ></path>
  <path
    d="M326.151066 288.762861l0.693802 0.745194c20.659875 21.841907 42.566023 42.476085 63.572798 63.98394 3.725972 3.931543 7.850238 7.451945 12.064442 10.843864 2.736662 3.558946 5.537566 7.4134 6.244216 11.961657-1.040703 2.633877-2.865144 4.843764-4.728131 6.938017-24.617114-24.938319-49.465496-49.658218-74.326725-74.352421-5.537566-5.177817-3.263438-13.426349-3.520402-20.120251zM495.965471 456.341681c0.501079-1.220577 0.98931-2.441154 1.464692-3.661731 1.747353 1.708808 3.481857 3.443312 5.152121 5.242058-0.56532 2.929385-1.220577 5.833074-1.888683 8.749611-1.593174-3.443312-3.173501-6.873777-4.72813-10.329938zM590.823588 638.593124c9.276386 7.464793 16.509912 17.152321 25.953325 24.360151 6.269912 4.908005 14.184391 1.015006 19.91468-2.762359 10.291393-0.783739 18.21872-8.081506 27.854856-10.94665 4.740979-1.516085 9.648984-2.441154 14.531293-3.430464-0.128482-1.541782-0.244115-3.070715-0.346901-4.586801 2.980778 2.004316 6.501179 2.955082 10.060125 3.289135 26.235985-0.308356 51.148607 18.886826 57.752572 44.223437 3.880151 15.661932 2.274128 32.865646-5.563262 47.075734-10.959498 17.306499-30.206073 29.602208-50.994429 29.73069-25.837691 1.451844-51.521205-15.970289-59.230113-40.74158-2.531092-7.683212-1.888683-16.869661-7.83739-23.049637-17.113777-17.190866-34.972748-33.700778-51.225697-51.739623 4.573952 3.417616 9.173601 6.809536 13.554831 10.484115 1.400452-0.578168 2.788055-1.169184 4.201355-1.721656 0.385445 1.657415 0.783739 3.314831 1.182033 4.972246 6.745295-1.940075 13.452045-1.644567 20.248732-0.025696-4.535408-10.021581-14.312873-15.944592-20.05601-25.131042m74.005521 62.750515c-2.26128 13.606223 8.40271 27.957641 22.510013 28.124667 8.8267 0.912221 16.342886-4.586801 21.726273-10.985194 6.822384-12.025897 2.454003-28.895558-10.638293-34.445973-13.709009-6.860928-30.565822 2.775207-33.597993 17.3065z"
    fill="#CECECD"
    p-id="71307"
  ></path>
  <path
    d="M452.53862 379.175508c5.036487-4.612497 9.880251-9.430565 14.839649-14.12015 1.079247 1.69596 2.055709 3.469009 3.109259 5.190665-3.803061 2.055709-7.644668 4.149962-10.818168 7.143588-30.180376 30.630063-60.797591 60.861832-91.132145 91.363413-6.655358 6.372698-13.940276 12.514128-17.640553 21.225194-1.760201-0.912221-3.494705-1.850138-5.254905-2.723814 6.873777-8.582585 15.263639-15.764718 22.908306-23.627804 27.906248-28.227453 56.63478-55.671167 83.988557-84.451092z"
    fill="#B3B3B3"
    p-id="71308"
  ></path>
  <path
    d="M262.372698 458.474479c-10.124366-26.403011-12.000201-56.63478-2.723815-83.551719-2.531092 18.951066-3.199197 38.493149 1.927227 57.084467 8.96803 37.927829 37.683714 69.868407 73.453049 84.7466 31.927729 13.272171 68.930489 11.730389 100.549862-1.721656 9.212146 7.97872 17.267955 17.190866 26.313074 25.362308-2.723814 2.993626-5.357691 6.064341-8.094353 9.032271-6.681054-8.338469-14.62123-15.53345-22.214505-22.985395-10.882409 3.340527-21.379373 8.184291-32.750012 9.687528-22.561405 3.10926-46.291995 1.503237-67.273074-7.888783-31.298168-12.411343-57.045922-38.351819-69.187453-69.765621zM569.315734 529.781882c1.580326-0.449686 3.186349-0.873676 4.779523-1.349059 31.555132 32.621531 64.099573 64.279448 96.052999 96.515533 6.244216 6.488331 13.20793 12.334253 18.64271 19.56778-3.558946-0.334053-7.079348-1.284818-10.060125-3.289135-28.240301-29.281004-57.302886-57.76542-85.928633-86.673827-7.991568-8.107202-16.484216-15.75187-23.486474-24.771292zM561.863789 550.878595c26.171744 26.878394 53.217164 52.960201 79.722961 79.543086 3.443312 3.777365 6.783839 8.723915 5.640352 14.107303-1.606023 6.244216-6.385546 10.972346-10.535509 15.661932-5.730289 3.777365-13.644768 7.670364-19.91468 2.762359-9.443413-7.207829-16.676939-16.895358-25.953325-24.360151-17.602008-18.50138-35.743639-36.527378-53.975207-54.424893 10.574053-8.916637 23.435082-18.424291 25.015408-33.289636zM409.779875 650.182183c11.255006-7.760301 19.709109-19.580627 33.238243-23.756286-19.991769 23.190966-44.403312 42.3733-64.279448 65.718444-10.124366 17.08808-16.651242 36.411744-28.792773 52.292096-11.781782 11.139373-26.801305 18.000301-40.844366 25.786298-6.436939 2.993626-14.492748 7.400552-21.340828 3.199197-6.98941-4.830916-13.040903-11.010891-18.051694-17.871819 5.357691 4.972246 10.201455 11.08798 17.165169 13.811794 7.259222 1.066399 13.876035-3.263438 20.261581-6.064341 14.184391-7.83739 30.180376-14.595533 40.317591-27.726374 8.569737-15.276487 16.407127-30.976964 24.347302-46.587503 7.246374-10.201455 17.049536-18.295809 25.593576-27.392321 4.047177-3.892999 8.209987-7.657516 12.385647-11.409185z"
    fill="#B3B3B3"
    p-id="71309"
  ></path>
  <path
    d="M488.924668 583.127528c2.569636-2.364065 5.139272-4.740979 7.55473-7.259222 25.310916 24.462936 49.683915 49.915182 75.213249 74.146851 16.252949 18.038846 34.11192 34.548758 51.225697 51.739623 5.948708 6.179975 5.306299 15.366424 7.83739 23.049637 7.708908 24.771292 33.392422 42.193425 59.230113 40.74158 20.788356-0.128482 40.034931-12.424191 50.994429-29.73069-6.205671 22.869762-28.805621 39.803664-52.18931 41.294053-27.559348 2.621029-55.349962-15.931744-62.801907-42.681656-2.145646-6.192823-0.783739-13.696161-5.177817-18.976763-43.850841-44.197742-88.472572-87.688833-131.886574-132.323413z"
    fill="#ABABAB"
    p-id="71310"
  ></path>
  <path
    d="M664.829109 701.343639c3.032171-14.531292 19.888984-24.167428 33.597993-17.3065 13.092296 5.550414 17.460678 22.420075 10.638293 34.445973-1.297666-9.854555-6.0001-20.351518-16.137315-23.704894-9.893099-4.2399-20.068858 0.860828-28.098971 6.565421z"
    fill="#ABABAB"
    p-id="71311"
  ></path>
</svg>
