<svg
  t="1632479947890"
  class="icon"
  viewBox="0 0 1025 1024"
  version="1.1"
  xmlns="http://www.w3.org/2000/svg"
  p-id="88059"
  width="32"
  height="32"
>
  <path
    d="M391.04 731.36c0-43.68 8.64-85.92 25.44-125.76 16.32-38.4 39.36-72.96 69.12-102.72 29.76-29.76 64.32-52.8 102.72-69.12 14.4-6.24 28.8-11.04 43.2-14.88 1.92-6.24 3.84-12.96 5.28-19.2 5.76-1.92 11.04-4.8 15.84-9.12 4.32-3.84 8.64-9.6 12-16.32 3.84-6.72 6.24-16.32 8.16-28.32 0.96-9.12 0.96-16.32-0.48-22.56-1.44-6.24-3.36-11.04-5.28-15.36-2.4-4.32-5.28-7.68-9.12-10.08 0.48-22.56-0.96-45.12-4.32-67.68-2.88-19.2-7.68-39.36-14.88-60.96-6.72-21.6-17.76-41.28-31.68-59.52-6.24-7.68-14.4-15.36-24.48-23.04-10.08-7.68-21.6-14.4-34.56-20.64s-26.88-11.04-41.76-15.36-30.72-5.76-47.04-5.76c-12.96 0-26.4 0.96-40.32 3.36-13.92 2.4-27.36 6.24-40.8 12s-26.88 13.44-40.32 23.04c-12.96 9.6-24.96 22.08-36 37.44-11.04 16.32-19.68 34.56-25.92 54.72-5.76 20.16-10.08 39.36-12 57.6-2.88 21.6-3.84 42.72-3.36 64.32-4.32 5.76-7.68 11.52-10.08 17.76-2.4 5.76-3.84 12-4.8 19.68-0.96 7.68 0 16.32 2.88 25.92 2.88 9.6 6.24 16.8 10.08 22.08 3.84 5.28 7.68 9.12 11.04 12 3.84 2.88 7.68 4.8 12 5.76 2.88 9.12 5.76 17.76 8.64 25.92 2.88 7.2 5.76 14.4 9.12 21.6 3.36 6.72 7.2 12.48 12 16.32 9.6 7.68 18.24 15.36 25.92 22.56 7.68 7.2 12 17.76 12.96 31.2 0.48 8.64 0.96 16.32 0.96 23.52s-1.44 14.4-3.84 21.12c-2.4 6.72-6.72 13.44-13.44 20.16-6.24 6.72-15.36 13.92-27.36 21.12-14.4 9.6-31.68 16.8-50.88 22.08s-104.16 34.08-122.4 40.32c-18.24 6.24-34.08 14.4-47.52 25.44-13.44 10.56-22.08 26.4-25.44 47.04-5.76 36-6.72 41.76-3.84 64.8 2.88 23.04 7.68 36.96 13.92 41.28 5.28 3.84 19.68 8.64 43.68 13.92 22.56 5.28 156.96 30.24 318.72 33.6-6.72-11.04-12-23.04-17.28-35.04-15.84-40.32-24.48-82.56-24.48-126.24z"
    fill="#7292B2"
    p-id="88060"
  ></path>
  <path
    d="M967.04 701.6c-1.92-11.04-12.96-22.56-24-25.44l-8.64-1.92c-19.68-6.24-37.44-19.2-48.48-38.4s-13.92-41.28-9.12-61.44l2.4-7.68c3.36-11.04-0.96-25.92-9.6-33.6 0 0-7.68-6.72-30.24-19.68s-31.68-16.32-31.68-16.32c-11.04-3.84-25.92 0-34.08 8.16l-5.76 6.24c-14.88 14.4-35.04 23.04-57.6 23.04s-42.72-8.64-57.6-23.04l-5.76-6.24c-7.68-8.64-23.04-12-34.08-8.16 0 0-9.6 3.36-32.16 16.32-22.08 12.96-30.24 19.68-30.24 19.68-8.64 7.2-12.96 22.08-9.6 33.6l2.4 8.16c4.8 20.16 2.4 42.24-9.12 61.44-11.04 19.2-28.8 32.64-48.96 38.4l-8.16 1.92c-11.04 2.4-22.08 13.92-24 25.44 0 0-1.92 10.08-1.92 36s1.92 36 1.92 36c1.92 11.52 12.96 22.56 24 25.44l7.68 1.92c19.68 5.76 37.92 19.2 48.96 38.4 11.04 19.2 13.92 41.28 9.12 61.44l-2.4 7.68c-3.36 11.04 0.96 25.92 9.6 33.6 0 0 7.68 6.72 30.24 19.68 22.08 12.96 31.68 16.32 31.68 16.32 11.04 3.84 25.92 0 34.08-8.16l5.76-6.24c15.36-14.4 35.52-23.04 57.6-23.04s42.72 8.64 57.6 23.04l5.76 6.24c7.68 8.64 23.04 12 34.08 8.16 0 0 9.6-3.36 32.16-16.32 22.08-12.96 30.24-19.68 30.24-19.68 8.64-7.2 12.96-22.56 9.6-33.6l-2.4-8.16c-4.8-20.16-2.4-42.24 9.12-61.44 11.04-19.2 29.28-32.64 48.96-38.4l7.68-1.92c11.04-2.4 22.08-13.92 24-25.44 0 0 1.92-10.08 1.92-36 0.48-25.92-0.96-36-0.96-36z m-256.8 139.2c-56.64 0-103.2-46.08-103.2-103.2 0-56.64 46.08-102.72 103.2-102.72 56.64 0 103.2 46.08 103.2 103.2 0 56.16-46.08 102.72-103.2 102.72z"
    fill="#34AFFF"
    p-id="88061"
  ></path>
</svg>
