<svg
  t="1633613937035"
  class="icon"
  viewBox="0 0 1024 1024"
  version="1.1"
  xmlns="http://www.w3.org/2000/svg"
  p-id="5390"
  width="32"
  height="32"
>
  <path
    d="M896 160H128a61.92 61.92 0 0 0-64 58.56v601.28A44.48 44.48 0 0 0 108.64 864H896a61.6 61.6 0 0 0 64-58.4V218.56A61.92 61.92 0 0 0 896 160zM358.08 368a72.32 72.32 0 0 1 64.8 43.68 70.4 70.4 0 0 1-16 77.28 71.36 71.36 0 0 1-74.72 15.04 70.4 70.4 0 0 1-45.28-65.28A71.2 71.2 0 0 1 358.08 368z m151.84 323.84h-304a17.28 17.28 0 0 1-17.76-16.8c0-74.24 83.04-124 170.08-124S528 603.84 528 674.24a17.6 17.6 0 0 1-17.6 17.6z m301.76 0H700.8a23.04 23.04 0 0 1-22.24-22.4 21.92 21.92 0 0 1 21.76-22.4h112a22.08 22.08 0 0 1 22.24 21.92 23.04 23.04 0 0 1-22.24 21.12z m0-138.4h-249.6a22.4 22.4 0 0 1-14.72-28.96 23.2 23.2 0 0 1 14.72-13.92h251.84a22.24 22.24 0 0 1 14.72 28.96 23.2 23.2 0 0 1-14.72 13.92z m0-138.72H621.6a22.08 22.08 0 0 1-16-27.68 22.72 22.72 0 0 1 16-15.2h192a22.08 22.08 0 0 1 16 27.52 22.88 22.88 0 0 1-16 16z"
    fill="#4C6594"
    p-id="5391"
  ></path>
</svg>
