<svg
  t="1633514693686"
  class="icon"
  viewBox="0 0 1024 1024"
  version="1.1"
  xmlns="http://www.w3.org/2000/svg"
  p-id="3502"
  width="32"
  height="32"
>
  <path
    d="M818 78c70.692 0 128 57.308 128 128v612c0 70.692-57.308 128-128 128H206c-70.692 0-128-57.308-128-128V206c0-70.692 57.308-128 128-128h612zM436.001 587.795c-14.393-14.393-37.73-14.393-52.123 0L223.714 747.958v-83.1c0-20.356-16.501-36.858-36.857-36.858C166.502 628 150 644.502 150 664.857v172c0 20.356 16.502 36.857 36.857 36.857h172c20.356 0 36.857-16.501 36.857-36.857 0-20.355-16.501-36.857-36.857-36.857H275.92l160.081-160.08c14.394-14.395 14.394-37.731 0-52.125zM836.94 150h-172c-20.356 0-36.858 16.502-36.858 36.857 0 20.356 16.502 36.857 36.858 36.857l82.936 0.001-160.08 160.08c-14.394 14.394-14.394 37.73 0 52.124 14.393 14.394 37.73 14.394 52.123 0l160.164-160.163v83.101c0 20.356 16.5 36.857 36.857 36.857 20.355 0 36.857-16.501 36.857-36.857v-172c0-20.355-16.502-36.857-36.857-36.857z"
    fill="#1DCC74"
    p-id="3503"
  ></path>
</svg>
