<svg
  t="1627461257393"
  class="icon"
  viewBox="0 0 1024 1024"
  version="1.1"
  xmlns="http://www.w3.org/2000/svg"
  p-id="2525"
  width="32"
  height="32"
>
  <path
    d="M955.7 516.95c0 9.45-3.6 18.45-10.35 25.2L542.6 944.45c-14.4 13.50000001-36.9 13.05-50.4-1.35-13.05-13.95-13.05-35.55000001 0-49.05l402.75-402.75000001c13.95-13.95 36.45-13.95 50.4 1e-8 6.3 6.75 10.35 16.2 10.35 25.65"
    p-id="2526"
    fill="#8a8a8a"
  ></path>
  <path
    d="M955.7 516.95c0 19.8-15.74999999 35.55-35.1 35.55-9.45 0-18.9-3.6-25.65-10.35L482.75 129.95c-13.05-14.39999999-12.15000001-36.9 2.25-50.4 13.5-12.6 34.65-12.6 48.15 0L945.35 491.75c6.3 6.3 10.35 15.75 10.35 25.2m-393.3 0c0 9.45-3.6 18.45-10.35 25.2L149.3 944.45C134.89999999 957.95 112.4 957.5 98.9 943.1c-13.05-13.95-13.05-35.55000001 0-49.05l402.75-402.75000001c13.95-13.95 36.45-13.95 50.4 1e-8 6.75 6.75 10.35 16.2 10.35 25.65"
    p-id="2527"
    fill="#8a8a8a"
  ></path>
  <path
    d="M562.4 516.95c0 19.8-15.74999999 35.55-35.1 35.55-9.45 0-18.9-3.6-25.65-10.35L89.45 129.95c-13.05-14.39999999-12.15000001-36.9 2.25-50.4 13.5-12.6 34.65-12.6 48.15000001 0L552.05 491.75c6.75 6.3 10.35 15.75 10.35 25.2"
    p-id="2528"
    fill="#8a8a8a"
  ></path>
</svg>
