<svg
  t="1633614138717"
  class="icon"
  viewBox="0 0 1024 1024"
  version="1.1"
  xmlns="http://www.w3.org/2000/svg"
  p-id="8697"
  width="32"
  height="32"
>
  <path
    d="M414.88 779.2H235.36a92.8 92.8 0 0 1-16-1.44 66.56 66.56 0 0 1-51.36-64.96V314.88a64 64 0 0 1 66.4-66.56h187.36V176H228.64a116.96 116.96 0 0 0-55.68 13.44A132.96 132.96 0 0 0 96 312.48v402.4a139.36 139.36 0 0 0 2.56 26.24 136.16 136.16 0 0 0 129.12 109.12c64 0.96 128 0 190.88 0a14.4 14.4 0 0 0 2.88 0v-70.88z"
    fill="#7E99AF"
    p-id="8698"
  ></path>
  <path
    d="M920.8 497.28L747.68 324.64l-134.72-134.4c-3.52-3.52-7.36-6.88-10.72-10.56a18.4 18.4 0 0 0-32 13.44v194.56H323.52a18.56 18.56 0 0 0-20.8 20.48v211.52a32 32 0 0 0 0 5.92 19.2 19.2 0 0 0 21.28 15.04h245.92V830.24a18.24 18.24 0 0 0 11.84 19.2 18.4 18.4 0 0 0 20.96-5.6l70.56-70.08L920.96 526.4a18.4 18.4 0 0 0-0.16-29.12z"
    fill="#7E99AF"
    p-id="8699"
  ></path>
</svg>
