<svg
  t="1632480204760"
  class="icon"
  viewBox="0 0 1024 1024"
  version="1.1"
  xmlns="http://www.w3.org/2000/svg"
  p-id="95837"
  width="32"
  height="32"
>
  <path
    d="M708.4 411.4c-29.2-23.9-61.9-46.6-97.4-67.4-33.2-19.4-66.6-35.7-99.5-49-33.1 12.9-66.7 28.9-100.1 47.9-30.2 17.2-58.4 35.9-84.2 55.5-6.6 38.7-10.3 80-10.5 122.9-0.2 37.9 2.3 74.5 7.1 109.3 26.2 20.5 54.8 40.1 85.7 58.1 33.2 19.4 66.6 35.7 99.5 49 33.1-12.9 66.7-28.9 100.1-47.9 36.5-20.8 70.1-43.7 100.1-67.8 4.2-31.4 6.6-64.4 6.8-98.4 0.1-39-2.5-76.6-7.6-112.2z"
    fill="#B6F5FF"
    p-id="95838"
  ></path>
  <path
    d="M668.6 654.7c-23.4-17.3-52.6-30.6-84.6-38.6-22.2 13.1-47.4 19.9-72.9 19.7-25.6-0.1-50.7-7.3-72.7-20.6-32 7.6-61.4 20.6-85 37.6l-8.2-11.4C371 623 403.1 609 438 601l2.8-0.6 2.5 1.6c20.4 12.9 43.8 19.8 67.8 20 24 0.1 47.5-6.5 68-19.2l2.5-1.5 2.8 0.7c34.8 8.3 66.8 22.7 92.4 41.6l-8.2 11.1z"
    fill="#0F13AE"
    p-id="95839"
  ></path>
  <path
    d="M0 0a0 0 0 1 0 0 0 0 0 0 1 0 0 0Z"
    fill="#B6F5FF"
    p-id="95840"
  ></path>
  <path
    d="M514.8 597.4h-0.6c-27.1-0.2-52.6-10.9-71.6-30.2-19.1-19.3-29.5-44.9-29.3-72 0.2-27.1 10.9-52.6 30.2-71.6 19.1-18.9 44.5-29.3 71.4-29.3h0.6c27.1 0.2 52.6 10.9 71.6 30.2 19.1 19.3 29.5 44.9 29.3 72-0.4 55.8-45.9 100.9-101.6 100.9z m0-189.1c-23.2 0-45 9-61.5 25.3-16.6 16.4-25.9 38.4-26 61.8-0.1 23.4 8.8 45.4 25.3 62.1 16.4 16.6 38.4 25.9 61.8 26h0.5c48 0 87.3-38.9 87.5-87 0.1-23.4-8.8-45.4-25.3-62.1s-38.4-25.9-61.8-26c-0.2-0.1-0.4-0.1-0.5-0.1z"
    fill="#0F13AE"
    p-id="95841"
  ></path>
  <path
    d="M513.2 928.1h-0.6c-62.3-0.4-120.2-54.2-158.9-147.8l-3.6-8.6 9.2-1c46.1-5.2 95.1-17.8 145.7-37.6l2.6-1 2.6 1c54 21.8 108.1 35.9 156.6 40.6l9.6 0.9-3.8 8.8c-39.7 92-97.7 144.7-159.4 144.7z m-143-144.7c36.3 82.9 87.9 130.3 142.4 130.6h0.5c53.9 0 105.6-46.3 142.7-127.5-46.5-5.6-97.5-19.1-148.3-39.4-47.4 18.3-93.5 30.5-137.3 36.3zM510.1 304.4l-2.6-1c-48.6-19.6-95.7-32.7-140.2-38.7l-9.4-1.3 4-8.6c19.2-41.6 42.1-74.4 68-97.6 27.2-24.3 56.4-36.6 86.7-36.6h0.6c30.4 0.2 59.5 12.7 86.5 37.3 25.6 23.2 48 56 66.7 97.4l4 8.9-9.7 0.9c-47.2 4.6-99.8 17.8-152.1 38.3l-2.5 1z m-131.5-52.2c42.1 6.5 86.3 19 131.6 37.2 49-19 98.3-31.7 143.4-37.1-17-35.5-36.9-63.8-59.3-84-24.3-22.3-50.3-33.6-77.1-33.7-26.9-0.2-53.2 11-78 33.1-22.7 20.2-43.1 48.6-60.6 84.5z"
    fill="#49A3FE"
    p-id="95842"
  ></path>
  <path
    d="M315.9 787.2c-76 0-132.3-24.3-157.9-69.1-15.4-27.1-18.9-59.5-10.3-96.3 8.1-34.8 26.5-71.6 54.6-109.5l5.7-7.6 5.6 7.7c28.7 39.5 67.7 79.1 113 114.5l2.2 1.7 0.4 2.8c7.3 52.9 19.9 101.2 37.3 143.5l3.6 8.6-9.2 1c-15.6 1.8-30.6 2.7-45 2.7zM208 528.3c-50.1 70.6-64 136.9-37.8 182.8 26.5 46.6 91.9 68.4 180 60.4-15.8-40.5-27.4-86-34.4-135.4-42.4-33.4-79.5-70.5-107.8-107.8zM809.7 531.8l-5.6-7.7c-26.6-36.6-60.7-72.1-101.5-105.4l-2.1-1.7-0.4-2.7c-8-56.6-22.7-109.6-42.4-153.2l-4-8.9 9.7-0.9c46.2-4.5 86.5-1.3 120 9.6 35.4 11.5 61.1 30.9 76.3 57.6 15.4 27.1 18.9 59.5 10.3 96.3-8.1 34.8-26.5 71.6-54.6 109.5l-5.7 7.5z m-96.1-122.2c37.9 31.2 70.2 64.3 96.1 98.5 50.1-70.6 63.9-136.9 37.8-182.8-25.8-45.2-88.6-67.2-173.1-61 18 42.3 31.4 92.2 39.2 145.3z"
    fill="#49A3FE"
    p-id="95843"
  ></path>
  <path
    d="M716.5 430l-13.9-11.3c-29.6-24.1-62-46.6-96.5-66.8-32-18.7-65.2-35.1-98.6-48.6l-16.3-6.6 16.4-6.4c53.5-20.9 107.4-34.5 155.8-39.2l5-0.5 2.1 4.6c20.2 44.8 35.3 99.1 43.5 157l2.5 17.8z m-103.3-90.1c29.7 17.4 57.9 36.4 84.1 56.8-8.1-48-21-92.9-37.6-131-40.9 4.5-85.7 15.3-130.7 31.6 28.7 12.2 56.9 26.6 84.2 42.6zM355.7 785.1l-2-4.9c-17.9-43.4-30.8-92.8-38.3-146.9l-2.4-17.1 13.6 10.6c26.5 20.8 55.1 40.1 84.9 57.6 32 18.7 65.2 35.1 98.6 48.6l16.3 6.6L510 746c-51.7 20.2-101.9 33.2-149.2 38.5l-5.1 0.6z m-23.9-136.6c7.2 44.3 18.2 85.1 32.8 121.5 39.5-4.9 81.2-15.2 124-30.8-28.5-12.3-56.8-26.7-84.1-42.7-25.2-14.7-49.6-30.8-72.7-48z"
    fill="#0F13AE"
    p-id="95844"
  ></path>
  <path
    d="M207.9 528.3l-5.6-7.7c-27.7-38.2-45.7-75.2-53.4-110.1-8.1-36.9-4.3-69.3 11.5-96.1 31.6-54 107.7-77.2 208.8-63.5l9.4 1.3-4 8.6c-18.9 40.9-32.9 88.2-41.9 140.7l-0.5 2.7-2.2 1.7c-46.6 35.3-86.9 75-116.5 114.8l-5.6 7.6z m106.6-267.4c-68.5 0-119 21.1-142.1 60.5-26.7 45.6-13.6 112 35.7 183.3 29.3-37.6 67.5-74.9 111.2-108.3 8.5-49 21.5-93.6 38.6-132.8-15.1-1.8-29.6-2.7-43.4-2.7zM703.2 789.5c-12.1 0-24.7-0.6-37.7-1.9l-9.6-0.9 3.8-8.8c19.3-44.8 33.5-98.4 41.1-154.9l0.4-2.8 2.2-1.8c40.4-32.4 74.3-66.9 100.8-102.6l5.7-7.6 5.6 7.7c27.7 38.2 45.7 75.2 53.4 110.1 8.1 36.9 4.3 69.3-11.5 96.2-15.3 26.1-40.5 45-75 56.1-23.2 7.4-49.7 11.2-79.2 11.2z m-26.9-15c39 2.9 73.2-0.3 101.7-9.5 31.2-10.1 53.8-26.9 67.3-49.9 26.7-45.6 13.6-112-35.7-183.3-25.8 33.2-57.8 65.4-95.3 95.8-7.3 53-20.4 103.5-38 146.9z"
    fill="#49A3FE"
    p-id="95845"
  ></path>
  <path
    d="M315.9 416.5l3-17.4c9.1-53.7 23.6-102.2 43-144.2l2.2-4.7 5.1 0.7c45.7 6.2 94 19.5 143.6 39.6l16.3 6.6-16.4 6.4c-33.6 13.2-67 29.1-99.2 47.5-29.3 16.7-57.4 35.2-83.5 55l-14.1 10.5z m56.5-151.1c-15.7 35.2-28 75-36.6 118.7 22.5-16.2 46.2-31.4 70.7-45.4C434 323 462.4 309 491.1 297c-40.8-15.4-80.7-26-118.7-31.6zM670.5 788.1l-5.1-0.5c-49.8-4.8-105.3-19.2-160.5-41.5l-16.3-6.6 16.4-6.4c33.6-13.2 67-29.1 99.2-47.5 35.3-20.1 68.7-42.7 99.2-67.2l13.7-11-2.3 17.4c-7.8 57.8-22.3 112.6-42.1 158.6l-2.2 4.7z m-144-48.7c46.6 17.5 93 29.1 135.2 33.7 16.4-39.2 28.9-84.8 36.6-133-27.2 20.8-56.4 40.1-87.1 57.6-27.6 15.7-56 29.7-84.7 41.7z"
    fill="#0F13AE"
    p-id="95846"
  ></path>
  <path
    d="M698.5 640.3l2.3-17.4c4.3-31.7 6.5-64.5 6.7-97.5 0.2-37.6-2.3-75-7.4-111.2l-2.5-17.7 13.9 11.3c41.7 34.1 76.7 70.4 104 108l3 4.2-3.1 4.1c-27.2 36.6-62 72-103.3 105.2l-13.6 11z m17.8-210.1c3.7 31.2 5.4 63.2 5.2 95.4-0.2 27.5-1.7 55-4.7 81.8 33-27.9 61.3-57.2 84.2-87.4-23-31.1-51.4-61.2-84.7-89.8zM331.6 648.6L318 637.9c-46.3-36.2-86.3-76.8-115.7-117.3l-3-4.2 3.1-4.1c30.4-40.9 71.6-81.6 119.2-117.7l14.1-10.7-3 17.4c-6.7 39.4-10.2 80.3-10.4 121.8-0.2 36.5 2.2 72.9 7 108.3l2.3 17.2zM216.7 516.5c25.4 34.1 58.5 68.3 96.6 99.6-3.5-30.5-5.2-61.7-5-93 0.2-36.1 2.9-71.8 7.9-106.5-39.2 31.3-73.3 65.5-99.5 99.9z"
    fill="#0F13AE"
    p-id="95847"
  ></path>
  <path
    d="M507.5 747.1l-2.6-1c-34.1-13.8-67.9-30.4-100.4-49.5-30.3-17.8-59.4-37.5-86.5-58.6l-2.2-1.7-0.4-2.8c-5-36-7.4-73.1-7.2-110.3 0.2-42.2 3.8-84 10.6-124.1l0.5-2.7 2.2-1.7c26.6-20.2 55.2-39 85-56 32.8-18.7 66.8-34.9 101-48.3l2.6-1 2.6 1c34.1 13.8 67.9 30.4 100.4 49.5 35.1 20.5 68.1 43.4 98.2 68l2.1 1.7 0.4 2.7c5.2 36.9 7.8 75 7.6 113.2-0.2 33.6-2.5 67-6.8 99.3l-0.4 2.8-2.2 1.8c-31 24.9-65 48-101 68.5-32.8 18.7-66.8 34.9-101 48.3l-2.5 0.9zM328.9 628.6c25.9 20.1 53.7 38.9 82.7 55.8 31.2 18.2 63.4 34.2 96 47.6 32.7-13 65.2-28.6 96.6-46.4 34.5-19.6 67.1-41.7 97-65.5 4-30.8 6.2-62.7 6.3-94.7 0.2-36.6-2.2-73.1-7-108.5-29-23.5-60.7-45.4-94.3-65-31.1-18.2-63.4-34.2-96-47.6-32.8 13-65.2 28.6-96.6 46.4-28.5 16.2-55.8 34.1-81.3 53.3-6.4 38.5-9.7 78.6-10 119.1-0.2 35.6 2 71.1 6.6 105.5z"
    fill="#0F13AE"
    p-id="95848"
  ></path>
  <path
    d="M0 0a0 0 0 1 0 0 0 0 0 0 1 0 0 0Z"
    fill="#B6F5FF"
    p-id="95849"
  ></path>
  <path
    d="M368.2 287.5h-0.2c-18.3-0.1-33.1-15.1-33-33.4 0.1-18.3 15.1-33.1 33.4-33 8.9 0.1 17.2 3.6 23.4 9.9 6.2 6.3 9.6 14.7 9.6 23.6 0 18.1-14.9 32.9-33.2 32.9z m0-52.4c-10.6 0-19.2 8.6-19.2 19.1-0.1 10.6 8.5 19.3 19.1 19.3h0.1c10.6 0 19.2-8.6 19.2-19.1 0-5.1-1.9-10-5.6-13.6-3.6-3.7-8.4-5.7-13.6-5.7 0.1 0 0.1 0 0 0z"
    fill="#0F13AE"
    p-id="95850"
  ></path>
  <path
    d="M0 0a0 0 0 1 0 0 0 0 0 0 1 0 0 0Z"
    fill="#B6F5FF"
    p-id="95851"
  ></path>
  <path
    d="M664.1 284.2h-0.2c-18.3-0.1-33.1-15.1-33-33.4 0.1-18.3 15-33 33.2-33h0.2c18.3 0.1 33.1 15.1 33 33.4 0 18.2-14.9 33-33.2 33z m0-52.5c-10.6 0-19.2 8.6-19.2 19.1-0.1 10.6 8.5 19.3 19.1 19.3h0.1c10.6 0 19.2-8.6 19.2-19.1h7-7c0.1-10.6-8.5-19.3-19.1-19.3h-0.1z"
    fill="#0F13AE"
    p-id="95852"
  ></path>
  <path
    d="M0 0a0 0 0 1 0 0 0 0 0 0 1 0 0 0Z"
    fill="#B6F5FF"
    p-id="95853"
  ></path>
  <path
    d="M668.4 812.6h-0.2c-18.3-0.1-33.1-15.1-33-33.4 0.1-18.3 15-33 33.2-33h0.2c8.9 0.1 17.2 3.6 23.4 9.9 6.2 6.3 9.6 14.7 9.6 23.6-0.1 18.1-15 32.9-33.2 32.9z m0-52.5c-10.6 0-19.2 8.6-19.2 19.1-0.1 10.6 8.5 19.3 19.1 19.3h0.1c10.6 0 19.2-8.6 19.2-19.1 0-5.1-1.9-10-5.6-13.6-3.6-3.7-8.4-5.7-13.6-5.7 0.1 0 0 0 0 0z"
    fill="#0F13AE"
    p-id="95854"
  ></path>
  <path
    d="M0 0a0 0 0 1 0 0 0 0 0 0 1 0 0 0Z"
    fill="#B6F5FF"
    p-id="95855"
  ></path>
  <path
    d="M357.9 813.7h-0.2c-18.3-0.1-33.1-15.1-33-33.4 0.1-8.9 3.6-17.2 9.9-23.4 6.3-6.2 14.6-9.6 23.4-9.6h0.2c18.3 0.1 33.1 15.1 33 33.4-0.2 18.2-15.1 33-33.3 33z m0-52.5c-5.1 0-9.9 2-13.5 5.6-3.7 3.6-5.7 8.4-5.7 13.6-0.1 10.6 8.5 19.3 19.1 19.3h0.1c10.6 0 19.2-8.6 19.2-19.1h7-7c0.1-10.6-8.5-19.3-19.1-19.3l-0.1-0.1z"
    fill="#0F13AE"
    p-id="95856"
  ></path>
  <path
    d="M0 0a0 0 0 1 0 0 0 0 0 0 1 0 0 0Z"
    fill="#B6F5FF"
    p-id="95857"
  ></path>
  <path
    d="M208 549.7h-0.2c-8.9-0.1-17.2-3.6-23.4-9.9-6.2-6.3-9.6-14.7-9.6-23.6 0.1-18.3 15-33 33.2-33h0.2c18.3 0.1 33.1 15.1 33 33.4-0.1 18.3-15 33.1-33.2 33.1z m0-52.5c-10.6 0-19.2 8.6-19.2 19.1 0 5.1 1.9 10 5.6 13.6 3.6 3.7 8.4 5.7 13.6 5.7h0.1c10.6 0 19.2-8.6 19.2-19.1 0.1-10.6-8.5-19.3-19.1-19.3h-0.2z"
    fill="#0F13AE"
    p-id="95858"
  ></path>
  <path
    d="M0 0a0 0 0 1 0 0 0 0 0 0 1 0 0 0Z"
    fill="#B6F5FF"
    p-id="95859"
  ></path>
  <path
    d="M809.8 553.2h-0.2c-18.3-0.1-33.1-15.1-33-33.4 0.1-8.9 3.6-17.2 9.9-23.4 6.3-6.2 14.6-9.6 23.4-9.6h0.2c18.3 0.1 33.1 15.1 33 33.4h-7 7c-0.1 8.9-3.6 17.2-9.9 23.4-6.3 6.2-14.6 9.6-23.4 9.6z m0-52.5c-5.1 0-9.9 2-13.5 5.6-3.7 3.6-5.7 8.4-5.7 13.6 0 5.1 1.9 10 5.6 13.6 3.6 3.7 8.4 5.7 13.6 5.7 5.1 0 10-1.9 13.6-5.6 3.7-3.6 5.7-8.4 5.7-13.6s-1.9-10-5.6-13.6c-3.6-3.7-8.4-5.7-13.6-5.7h-0.1z"
    fill="#0F13AE"
    p-id="95860"
  ></path>
  <path d="M514.2 257.4v-14.6" fill="#B6F5FF" p-id="95861"></path>
  <path
    d="M507.16 257.338l0.085-14.6 14 0.081-0.085 14.6z"
    fill="#0F13AE"
    p-id="95862"
  ></path>
  <path d="M511 794.3l0.1-14.6" fill="#B6F5FF" p-id="95863"></path>
  <path
    d="M504.03 794.244l0.084-14.6 14 0.081-0.085 14.6z"
    fill="#0F13AE"
    p-id="95864"
  ></path>
  <path d="M740.3 390.6l12.7-7.2" fill="#B6F5FF" p-id="95865"></path>
  <path
    d="M736.88 384.469l12.728-7.154 6.86 12.204-12.727 7.154z"
    fill="#0F13AE"
    p-id="95866"
  ></path>
  <path d="M272.2 653.7l12.8-7.2" fill="#B6F5FF" p-id="95867"></path>
  <path
    d="M268.79 647.576l12.727-7.154 6.86 12.203-12.727 7.154z"
    fill="#0F13AE"
    p-id="95868"
  ></path>
  <path d="M286.5 388l-12.7-7.3" fill="#B6F5FF" p-id="95869"></path>
  <path
    d="M270.314 386.757l7.001-12.124 12.644 7.302-7.002 12.124z"
    fill="#0F13AE"
    p-id="95870"
  ></path>
  <path d="M751.4 656.5l-12.6-7.3" fill="#B6F5FF" p-id="95871"></path>
  <path
    d="M735.308 655.236l7.002-12.124 12.643 7.301-7.001 12.124z"
    fill="#0F13AE"
    p-id="95872"
  ></path>
</svg>
