<svg
  t="1632536183676"
  class="icon"
  viewBox="0 0 1024 1024"
  version="1.1"
  xmlns="http://www.w3.org/2000/svg"
  p-id="3394"
  width="200"
  height="200"
>
  <path
    d="M995.2 508v-2.4c0-58.4-11.2-114.4-29.6-165.6-32-88-88.8-164.8-165.6-222.4C714.4 54.4 613.6 20.8 508 20.8c-23.2 0-47.2 1.6-70.4 4.8C332 40.8 236.8 88 162.4 163.2c-16.8 16.8-32 34.4-46.4 53.6C38.4 320.8 4.8 449.6 24 578.4c10.4 69.6 34.4 135.2 72 193.6 1.6 2.4 3.2 4 4.8 5.6 38.4 58.4 88.8 107.2 148 144.8 1.6 1.6 3.2 3.2 4.8 4 76 46.4 164 70.4 253.6 70.4 23.2 0 46.4-1.6 68.8-4.8 108.8-16 204-65.6 276-138.4 77.6-77.6 129.6-181.6 140.8-297.6 0-1.6 0-3.2 0.8-5.6v-2.4-3.2-4-2.4-4.8-0.8V526.4v-5.6-0.8-5.6-0.8-4c1.6 0.8 1.6 0 1.6-1.6 0 0.8 0 0.8 0 0z"
    fill="#664E88"
    p-id="3395"
  ></path>
  <path
    d="M512 167.2c-69.6 0-126.4 55.2-128.8 124.8H220c-18.4 0-32.8 14.4-32.8 32.8s14.4 32.8 32.8 32.8H256v367.2c0 68.8 47.2 125.6 104.8 125.6H656c57.6 0 104.8-56 104.8-125.6V358.4h32.8c18.4 0 32.8-14.4 32.8-32.8s-14.4-32.8-32.8-32.8H640.8c-1.6-70.4-58.4-125.6-128.8-125.6z m-67.2 124.8c2.4-36 32-63.2 67.2-63.2 36 0 64.8 28 67.2 63.2H444.8zM360.8 788.8c-20.8 0-43.2-26.4-43.2-64V358.4h381.6v367.2c0 37.6-22.4 64-43.2 64l-295.2-0.8z m0 0"
    fill="#FFFFFF"
    p-id="3396"
  ></path>
  <path
    d="M412 691.2c14.4 0 25.6-13.6 25.6-31.2V480.8c0-17.6-11.2-31.2-25.6-31.2-14.4 0-25.6 13.6-25.6 31.2v178.4c0.8 18.4 11.2 32 25.6 32z m92.8 0c14.4 0 25.6-13.6 25.6-31.2V480.8c0-17.6-11.2-31.2-25.6-31.2-14.4 0-25.6 13.6-25.6 31.2v178.4c0 18.4 11.2 32 25.6 32z m96.8 0c14.4 0 25.6-13.6 25.6-31.2V480.8c0-17.6-11.2-31.2-25.6-31.2S576 464 576 480.8v178.4c0 18.4 11.2 32 25.6 32z m0 0"
    fill="#FFFFFF"
    p-id="3397"
  ></path>
</svg>
