<svg
  t="1632454203117"
  class="icon"
  viewBox="0 0 1024 1024"
  version="1.1"
  xmlns="http://www.w3.org/2000/svg"
  p-id="50791"
  width="200"
  height="200"
>
  <path
    d="M512 0c282.88 0 512 229.12 512 512s-229.12 512-512 512-512-229.12-512-512 229.12-512 512-512zM332.16 626.56a49.92 49.92 0 0 0-6.016 30.4l13.184 77.824a14.272 14.272 0 0 0 18.56 11.648l75.52-22.272a50.048 50.048 0 0 0 24.64-18.688L607.68 465.28a16.448 16.448 0 0 0-5.184-22.784l-97.984-61.44a16.32 16.32 0 0 0-22.72 5.312L332.16 626.56z m186.88-299.904a16.512 16.512 0 0 0 5.12 22.848l97.984 61.44c7.872 4.928 17.92 2.432 22.72-5.376l31.616-50.688a16.512 16.512 0 0 0-5.12-22.848l-98.048-61.44a16.384 16.384 0 0 0-22.72 5.376l-31.616 50.688z m-150.656 299.52L470.272 462.72a11.648 11.648 0 0 1 15.872-3.712 11.712 11.712 0 0 1 3.648 16L387.968 638.464a11.648 11.648 0 0 1-16 3.712 11.712 11.712 0 0 1-3.584-16z"
    fill="#00C8C0"
    p-id="50792"
  ></path>
</svg>
