<svg
  t="1632462892460"
  class="icon"
  viewBox="0 0 1024 1024"
  version="1.1"
  xmlns="http://www.w3.org/2000/svg"
  p-id="65482"
  width="200"
  height="200"
>
  <path
    d="M512 512m-512 0a512 512 0 1 0 1024 0 512 512 0 1 0-1024 0Z"
    fill="#2BC756"
    fill-opacity=".159"
    p-id="65483"
  ></path>
  <path
    d="M702.95552 435.69152v-21.25824l-2.6624-2.53952L575.56992 286.72H380.3136c-27.52512 0-49.64352 21.21728-49.64352 47.55456v309.49376c0 26.33728 22.1184 47.55456 49.64352 47.55456h128c12.0832 0 21.7088-9.216 21.7088-20.76672a21.13536 21.13536 0 0 0-21.7088-20.80768H392.35584a18.0224 18.0224 0 0 1-18.30912-17.57184v-286.3104a18.0224 18.0224 0 0 1 18.30912-17.6128h136.97024v125.21472c0 13.06624 11.18208 23.7568 24.7808 23.7568h104.36608v26.17344c0 11.75552 10.07616 21.42208 22.36416 21.42208 12.288 0 22.3232-9.66656 22.3232-21.42208v-67.70688h-0.2048z m1.10592 170.10688h-37.51936v-35.96288a24.45312 24.45312 0 0 0-24.82176-24.04352 24.28928 24.28928 0 0 0-24.7808 24.04352v35.96288h-37.56032a24.28928 24.28928 0 0 0-24.82176 24.04352c0 13.27104 11.18208 23.7568 24.82176 23.7568h37.56032v38.17472c0 13.27104 11.14112 23.7568 24.7808 23.7568a24.24832 24.24832 0 0 0 24.82176-23.7568v-38.13376h37.51936a24.24832 24.24832 0 0 0 24.82176-23.79776 24.1664 24.1664 0 0 0-24.82176-24.04352z m-131.60448-170.10688v-72.9088c0-4.7104 6.26688-7.04512 9.58464-3.60448l65.49504 67.50208c3.35872 3.39968 0.69632 9.0112-4.05504 9.0112h-70.98368z"
    fill="#2BC756"
    p-id="65484"
  ></path>
</svg>
