<svg
  t="1632454324338"
  class="icon"
  viewBox="0 0 1024 1024"
  version="1.1"
  xmlns="http://www.w3.org/2000/svg"
  p-id="55494"
  width="200"
  height="200"
>
  <path
    d="M512 0C230.4 0 0 230.4 0 512s230.4 512 512 512 512-230.4 512-512-230.4-512-512-512z"
    fill="#1FAF88"
    p-id="55495"
  ></path>
  <path
    d="M697.6 640c6.4-6.4 0-6.4 6.4-12.8 70.4-102.4 64-243.2-32-326.4-102.4-102.4-268.8-102.4-371.2 0-44.8 44.8-70.4 108.8-70.4 179.2s25.6 134.4 76.8 179.2c96 89.6 236.8 102.4 345.6 19.2l108.8 108.8c6.4 6.4 12.8 6.4 19.2 6.4 6.4 0 12.8 0 19.2-6.4 6.4-6.4 19.2-19.2 19.2-25.6 0-6.4 0-12.8-6.4-19.2L697.6 640z m-384-160c0-102.4 83.2-179.2 179.2-179.2 96 0 179.2 76.8 179.2 179.2 0 102.4-83.2 179.2-179.2 179.2-102.4 0-179.2-76.8-179.2-179.2z"
    fill="#FFFFFF"
    p-id="55496"
  ></path>
</svg>
