<!-- 表格导入按钮 -->
<svg
  t="1632451557717"
  class="icon"
  viewBox="0 0 1026 1024"
  version="1.1"
  xmlns="http://www.w3.org/2000/svg"
  p-id="18951"
  width="200"
  height="200"
>
  <path
    d="M512.629766 3.778598C231.124231 3.778598 2.519065 232.383764 2.519065 513.889299s228.605166 510.110701 510.110701 510.110701 510.110701-228.605166 510.110701-510.110701-228.605166-510.110701-510.110701-510.110701zM264.501845 335.665437c142.95695-126.583026 238.681427-44.083641 307.325953 81.239852l61.087331-37.156212c4.408364-2.519065 9.446494-2.519065 13.225092 0.629767 3.778598 3.148831 5.667897 8.186962 4.408364 13.225092l-29.599016 191.448955c-1.889299 6.927429-8.816728 10.706027-15.114391 9.446494L434.538745 524.595326c-3.148831-0.629766-5.667897-3.148831-7.557195-5.667897-0.629766-1.259533-1.259533-3.148831-1.259533-4.408364-0.629766-5.03813 1.889299-10.076261 6.297663-12.595326l59.827798-36.526445C425.092251 341.9631 360.856089 299.138991 264.501845 349.520295v-13.854858z m505.702337 339.444034c0 44.713407-35.266913 80.610086-79.350553 80.610086H333.776138c-44.083641 0-79.350554-35.896679-79.350554-80.610086v-201.525215h39.675277v204.04428c0 22.04182 17.633456 40.305043 39.675277 40.305043h357.077491c22.04182 0 39.675277-18.263223 39.675276-40.305043v-327.478474c0-22.04182-17.633456-40.305043-39.675276-40.305044H611.503075v-37.785977h79.350554c44.083641 0 79.350554 35.896679 79.350553 80.610086v322.440344z"
    fill="#664E88"
    p-id="18952"
  ></path>
</svg>
